<?xml version="1.0" standalone="no"?>
<!DOCTYPE svg PUBLIC "-//W3C//DTD SVG 20010904//EN"
 "http://www.w3.org/TR/2001/REC-SVG-20010904/DTD/svg10.dtd">
<svg version="1.0" xmlns="http://www.w3.org/2000/svg"
 width="772.000000pt" height="772.000000pt" viewBox="0 0 772.000000 772.000000"
 preserveAspectRatio="xMidYMid meet">
<metadata>
Created by potrace 1.14, written by Peter Selinger 2001-2017
</metadata>
<g transform="translate(0.000000,772.000000) scale(0.100000,-0.100000)"
fill="#000000" stroke="none">
<path d="M2881 7578 c-66 -11 -62 -18 12 -17 45 1 73 -4 88 -15 13 -9 33 -16
46 -16 25 0 82 -45 71 -56 -5 -4 -40 -1 -79 6 -49 9 -82 11 -108 4 -20 -5 -57
-7 -82 -4 -59 7 -257 -13 -329 -34 -95 -26 -100 -28 -100 -35 0 -3 -15 -7 -33
-8 -44 -3 -149 -43 -165 -62 -89 -110 -89 -111 -115 -111 -21 0 -95 -34 -107
-49 -8 -10 -73 -40 -102 -47 -16 -3 -28 -9 -28 -13 0 -4 -19 -15 -42 -25 -24
-11 -50 -24 -58 -31 -8 -7 -31 -16 -50 -20 -19 -4 -46 -14 -60 -23 -14 -10
-38 -23 -55 -29 -28 -12 -29 -13 -5 -12 14 1 43 0 65 -1 l40 -2 -35 -10 c-19
-5 -39 -14 -45 -19 -5 -5 -24 -9 -42 -9 -19 0 -33 -5 -34 -12 0 -7 -13 -23
-30 -36 -24 -19 -29 -21 -29 -7 0 13 -4 14 -20 5 -11 -6 -25 -8 -31 -5 -5 4
-25 -7 -44 -24 -19 -16 -30 -33 -25 -36 6 -4 13 1 16 9 10 25 22 18 16 -9 -2
-14 -10 -25 -17 -25 -7 0 -18 -7 -25 -15 -7 -8 -19 -15 -28 -15 -8 0 -23 -7
-32 -15 -9 -8 -31 -16 -51 -19 -19 -2 -61 -20 -94 -39 -33 -19 -78 -40 -100
-47 -60 -19 -69 -34 -15 -24 25 4 65 8 90 9 25 1 63 10 85 19 22 10 58 20 80
23 22 2 52 8 68 13 15 5 27 5 27 1 0 -17 -38 -41 -67 -41 -16 0 -43 -6 -59
-14 -16 -8 -56 -17 -89 -20 -81 -8 -144 -21 -157 -34 -12 -12 109 -7 182 8 25
5 122 12 215 14 94 3 195 10 225 16 64 14 64 14 110 11 26 -1 31 -4 20 -10 -8
-6 -17 -8 -21 -5 -4 2 -12 -3 -19 -11 -7 -8 -21 -15 -32 -15 -10 0 -33 -7 -50
-16 -29 -15 -59 -15 -139 -2 -30 6 -84 -21 -84 -41 0 -8 -13 -14 -37 -16 -21
-1 -35 2 -32 7 3 4 3 8 -1 8 -3 0 -10 -11 -15 -25 -6 -16 -14 -23 -25 -19 -8
3 -15 1 -15 -5 0 -6 -12 -11 -28 -11 -15 0 -43 -5 -62 -10 -19 -6 -64 -15
-100 -20 -62 -10 -166 -53 -222 -92 -14 -10 -33 -18 -41 -18 -8 0 -20 -7 -27
-15 -7 -9 -15 -13 -18 -10 -3 3 -10 1 -16 -4 -6 -5 -63 -23 -126 -39 -63 -17
-123 -33 -132 -37 -13 -5 -18 -2 -18 10 0 9 4 14 9 10 5 -3 17 5 26 17 8 13
18 21 21 20 3 -2 8 -1 11 2 4 3 -3 6 -13 6 -11 0 -26 -6 -32 -12 -7 -7 -17
-13 -21 -13 -9 0 -55 -32 -80 -55 -9 -8 -34 -21 -55 -29 -32 -11 -40 -11 -48
0 -7 11 -11 11 -15 2 -2 -7 -11 -13 -19 -13 -24 0 -15 -19 12 -26 17 -4 22 -9
14 -14 -8 -5 -1 -10 18 -15 20 -4 38 -2 50 7 19 13 22 18 22 40 0 6 3 8 7 5 3
-4 18 0 31 9 25 16 25 16 19 -12 -4 -16 -4 -23 -1 -16 3 6 9 10 14 7 4 -3 37
9 72 27 34 17 75 32 90 32 16 1 28 4 28 9 0 4 5 7 10 7 21 0 9 -18 -20 -30
-16 -7 -35 -19 -42 -27 -10 -13 -7 -14 25 -8 20 4 37 3 37 -2 0 -9 -88 -53
-107 -53 -6 0 -13 -4 -15 -10 -4 -14 -100 -30 -148 -25 -41 4 -130 -27 -130
-44 0 -5 -10 -9 -22 -9 -63 -1 -128 -20 -128 -37 0 -8 -10 -17 -22 -20 -13 -4
-38 -13 -55 -21 -29 -13 -33 -20 -33 -52 0 -33 3 -37 28 -39 15 -1 42 -5 59
-8 21 -5 33 -3 33 3 0 6 26 16 58 23 31 7 86 27 122 45 36 19 84 40 108 49 37
12 77 36 117 67 29 23 125 63 128 54 3 -8 8 -8 18 0 8 6 32 17 54 24 46 14 65
28 65 44 0 6 -5 3 -11 -6 -5 -10 -16 -15 -24 -11 -9 3 -22 0 -29 -6 -11 -10
-19 -8 -35 6 -12 9 -21 21 -21 25 0 13 48 9 53 -4 4 -8 6 -7 6 3 1 20 21 29
62 29 16 0 29 3 29 8 0 4 11 12 25 19 34 15 33 -5 -2 -32 -35 -29 -23 -47 26
-40 49 7 100 22 114 33 7 5 39 19 72 32 33 13 75 32 93 43 18 10 36 17 39 13
11 -11 -27 -56 -48 -56 -11 0 -18 -4 -15 -9 4 -5 -2 -7 -13 -4 -10 3 -22 0
-25 -6 -4 -6 -18 -11 -32 -11 -13 0 -24 -4 -24 -8 0 -11 -73 -52 -93 -52 -8 0
-20 -7 -27 -15 -7 -9 -19 -14 -26 -11 -8 3 -19 -1 -26 -8 -8 -7 -30 -19 -51
-25 -20 -7 -35 -16 -32 -21 11 -18 -148 -90 -250 -113 -27 -6 -52 -14 -55 -18
-8 -10 -68 -39 -82 -39 -7 0 -26 -7 -43 -16 -16 -9 -70 -22 -120 -30 -49 -8
-102 -21 -118 -29 -18 -9 -43 -12 -68 -9 l-39 6 0 -710 0 -711 22 -3 c26 -4
49 -42 83 -141 30 -88 30 -87 5 -87 -13 0 -25 11 -32 28 -7 15 -23 38 -36 52
-14 14 -28 34 -33 45 -5 12 -7 -41 -6 -125 2 -129 4 -145 19 -145 10 0 23 -6
29 -12 9 -9 15 -8 27 4 14 14 14 17 0 27 -12 9 -32 75 -29 96 1 8 41 8 41 0 0
-4 13 -10 29 -13 16 -4 31 -14 34 -24 3 -10 5 0 6 22 0 23 6 46 11 51 6 6 12
25 15 43 2 18 15 44 30 58 17 18 22 29 14 33 -7 5 -8 10 -1 14 6 3 12 2 14 -4
2 -6 44 -4 117 5 150 20 161 23 172 52 8 21 12 23 24 13 12 -10 16 -9 21 4 3
9 10 14 15 11 4 -3 13 4 19 15 6 11 17 20 25 20 7 0 23 11 34 25 14 19 27 25
47 23 15 -2 29 3 31 10 3 6 -2 12 -11 12 -32 0 -15 18 24 25 22 4 40 11 40 16
0 5 11 9 25 9 28 0 34 15 9 24 -21 8 -8 26 20 26 31 0 47 19 35 41 -7 14 -5
21 11 29 21 11 26 8 76 -58 9 -13 14 -12 37 3 14 9 29 26 33 38 6 20 1 27 -41
52 -13 8 -15 18 -10 47 4 21 11 35 16 32 5 -3 9 4 9 14 0 13 9 22 24 26 22 5
30 19 42 81 2 11 10 25 17 30 8 6 12 16 10 22 -3 7 3 16 12 19 8 4 23 21 33
38 18 33 19 37 21 74 1 15 9 26 20 29 12 3 23 17 26 34 4 16 13 29 21 29 16 0
45 52 51 94 8 64 51 158 67 149 6 -4 5 0 -2 9 -11 14 -10 19 9 36 11 11 18 25
14 31 -3 6 -1 11 5 11 6 0 15 -10 19 -22 8 -20 10 -21 16 -6 5 13 12 14 38 7
50 -14 81 -11 97 11 8 11 17 20 21 20 17 0 74 64 71 81 -2 10 6 23 17 29 14 7
21 7 21 1 0 -6 6 -8 13 -6 7 3 13 25 14 53 1 46 1 47 -16 25 -20 -24 -46 -16
-35 10 4 12 1 17 -11 17 -14 0 -16 8 -13 53 1 28 8 56 13 60 6 6 6 10 -2 14
-7 2 -13 11 -13 18 0 8 -9 17 -20 20 -26 8 -25 16 5 49 14 15 25 35 25 46 0
25 10 50 20 50 5 0 5 -12 1 -27 -11 -44 -3 -70 24 -75 13 -3 29 0 35 6 9 8 10
1 5 -26 -6 -31 -4 -38 9 -38 9 0 16 5 16 11 0 5 5 7 12 3 8 -5 9 -2 5 9 -3 9
-2 19 3 22 6 4 10 14 10 25 0 10 7 21 16 24 23 9 32 -3 14 -17 -14 -11 -27
-44 -44 -112 -3 -11 -1 -27 4 -35 7 -11 10 -11 10 -2 0 15 50 61 67 62 6 0 14
6 17 13 4 6 4 2 2 -10 -2 -13 0 -26 5 -29 5 -3 9 3 10 13 1 13 3 11 8 -6 4
-14 12 -26 19 -29 7 -2 12 0 10 5 -6 20 22 51 42 46 17 -5 20 0 20 33 1 42 15
67 41 72 12 2 15 -5 11 -28 -2 -18 0 -30 7 -30 6 0 8 -11 5 -28 -4 -19 -1 -32
10 -41 21 -18 20 -37 -5 -77 -12 -20 -18 -42 -15 -54 3 -11 9 -29 12 -40 9
-32 -18 -20 -35 15 -8 17 -13 33 -13 38 1 4 -2 7 -8 7 -5 0 -13 1 -16 3 -6 2
-33 -76 -34 -95 0 -5 17 -16 38 -26 21 -10 36 -24 34 -32 -2 -8 4 -20 14 -27
9 -6 17 -24 17 -38 0 -14 3 -25 8 -25 5 0 9 5 9 10 0 7 4 7 13 0 67 -57 71
-59 62 -30 -12 38 13 22 44 -29 6 -9 18 -12 36 -7 28 7 28 5 9 74 -5 19 -2 22
20 22 19 0 32 -10 48 -35 19 -29 29 -35 60 -35 20 0 40 -5 44 -11 3 -6 15 -8
27 -5 11 3 29 0 40 -6 15 -7 18 -7 12 2 -7 11 10 29 28 30 11 0 8 -35 -4 -47
-8 -8 -8 -16 0 -30 10 -17 10 -17 11 0 0 15 17 22 42 18 4 0 5 6 2 14 -4 8
-10 15 -15 15 -5 0 -9 5 -9 11 0 6 7 9 15 5 8 -3 15 0 15 7 1 7 9 2 19 -10 16
-20 21 -21 31 -8 7 9 10 26 6 41 -5 19 -4 24 5 18 9 -5 10 -2 6 10 -4 10 -7
27 -7 37 0 11 -4 18 -9 14 -17 -10 -33 33 -21 55 6 11 15 20 20 20 20 0 40
-13 40 -26 0 -8 7 -17 15 -20 20 -8 45 -61 45 -96 0 -15 5 -28 11 -28 5 0 7
-5 3 -12 -4 -6 1 -17 11 -25 15 -10 16 -16 7 -25 -7 -7 -12 -17 -12 -22 0 -6
5 -3 11 7 13 22 30 22 57 -3 12 -11 25 -20 30 -20 5 0 17 -9 26 -19 14 -15 98
-51 119 -51 3 0 7 12 10 26 3 17 1 24 -8 20 -14 -5 -55 33 -55 51 0 6 11 8 25
5 20 -3 25 0 25 17 0 36 43 28 59 -11 8 -21 15 -28 18 -19 3 7 0 17 -7 21 -7
4 -9 13 -6 19 4 6 5 25 1 41 -5 22 -12 30 -29 30 -36 0 -73 58 -47 74 5 3 16
-10 25 -29 15 -31 21 -35 56 -35 41 0 56 -16 20 -22 -18 -3 -18 -4 5 -27 l25
-23 0 26 c0 16 6 26 15 26 8 0 15 -4 15 -10 0 -5 7 -10 15 -10 19 0 20 -46 1
-53 -8 -3 -17 -1 -20 6 -2 7 -5 2 -5 -10 -1 -14 -8 -23 -23 -25 -27 -4 -39
-48 -14 -48 9 0 16 -7 16 -16 0 -8 4 -12 10 -9 5 3 10 0 10 -7 1 -9 5 -7 14 5
19 24 35 21 28 -5 -5 -22 -4 -22 15 -5 11 9 24 17 29 17 13 0 34 58 27 76 -7
20 13 17 29 -4 7 -10 34 -35 61 -56 44 -36 49 -38 65 -22 24 21 28 20 37 -6
l8 -23 4 24 c3 16 -1 28 -14 35 -25 14 -53 15 -53 2 0 -6 -10 4 -22 22 -16 25
-18 36 -9 41 13 9 65 2 56 -7 -6 -6 37 -38 47 -35 4 2 5 -4 2 -12 -4 -8 -2
-15 4 -15 5 0 7 -11 4 -25 -3 -18 0 -25 12 -25 14 0 22 24 17 53 -2 16 36 5
61 -18 36 -34 45 -32 40 9 -4 32 -2 34 19 29 36 -9 98 -62 105 -89 3 -13 14
-28 23 -33 26 -15 6 -23 -25 -10 -16 7 -33 11 -39 9 -5 -1 -23 -4 -39 -6 -37
-5 -40 -8 -33 -36 6 -22 76 -68 104 -68 6 0 13 -5 15 -10 2 -6 23 1 48 14 35
18 49 33 62 67 9 24 17 54 17 66 1 15 12 28 33 39 17 9 51 35 74 59 l44 43
-30 6 c-33 6 -41 26 -11 26 15 0 18 5 14 23 -3 12 -10 28 -16 35 -16 20 0 25
25 8 24 -17 68 -22 68 -7 0 4 -11 17 -25 27 -46 34 -18 71 30 40 39 -26 115
-103 115 -118 0 -19 59 -55 105 -63 63 -11 155 -57 225 -112 73 -58 95 -73
107 -73 8 0 12 -4 8 -9 -3 -6 15 -35 40 -65 25 -31 45 -58 45 -62 0 -3 13 -24
29 -47 16 -24 36 -59 44 -79 16 -37 36 -53 94 -74 24 -8 33 -8 36 0 2 6 8 8
11 4 4 -3 -2 -16 -13 -27 -24 -24 -25 -30 -6 -54 13 -18 14 -17 18 5 l4 23 2
-23 c0 -12 8 -25 16 -28 14 -6 13 -8 -2 -20 -17 -12 -16 -13 9 -14 23 0 27 -4
25 -22 -1 -17 4 -24 20 -26 13 -2 32 -15 44 -30 l21 -27 -7 25 c-4 14 -4 22 0
18 11 -11 44 60 38 82 -3 11 0 20 6 20 6 0 11 -5 11 -11 0 -6 6 -9 14 -6 18 7
67 -48 60 -67 -9 -23 36 -44 104 -47 12 -1 25 -6 28 -10 3 -5 0 -8 -7 -7 -6 2
-15 -10 -20 -26 -7 -24 -2 -36 33 -83 44 -58 79 -84 86 -64 7 20 20 12 31 -20
6 -17 20 -33 31 -36 11 -3 20 -10 20 -17 0 -6 7 -3 14 7 12 15 15 15 26 2 10
-12 10 -15 -3 -15 -14 0 -14 -3 1 -30 18 -32 27 -36 37 -20 10 16 35 12 29 -5
-4 -8 1 -17 10 -21 9 -3 16 -11 16 -17 0 -7 -4 -7 -12 1 -7 7 -18 12 -25 12
-8 0 -6 -7 7 -20 11 -11 25 -20 30 -20 6 0 10 -7 10 -15 0 -8 6 -15 13 -15 21
-1 57 -37 57 -58 0 -11 18 -38 40 -60 22 -22 40 -46 40 -55 0 -8 6 -17 14 -20
8 -3 20 -23 27 -44 12 -42 78 -103 110 -103 16 0 19 8 19 58 0 50 -5 66 -31
101 -34 48 -35 74 -1 79 20 3 22 8 20 48 -2 24 -5 44 -8 44 -3 0 -6 23 -7 51
0 28 -6 56 -11 61 -6 6 -8 17 -5 24 3 8 1 14 -4 14 -6 0 -16 19 -23 43 -6 23
-27 70 -45 104 -27 51 -32 70 -28 103 5 36 4 40 -17 40 -17 0 -21 4 -17 20 3
11 1 20 -4 20 -4 0 -6 6 -3 14 10 27 -40 92 -104 134 -13 8 -29 27 -37 41 -7
15 -25 33 -39 41 -24 12 -37 50 -17 50 12 0 20 49 10 56 -5 3 -9 14 -9 24 0
18 -7 39 -46 128 -10 20 -17 58 -18 84 -1 33 -7 53 -24 70 -12 14 -22 29 -22
35 0 10 -16 26 -133 127 -31 28 -59 58 -63 68 -3 10 -10 18 -15 18 -5 0 -27
11 -48 25 -22 15 -45 23 -54 19 -26 -9 -22 31 5 56 28 26 42 25 56 -4 8 -19
61 -56 78 -56 9 0 -12 37 -27 48 -15 11 -41 68 -44 97 0 6 -10 25 -20 42 -15
25 -28 33 -50 34 -24 1 -25 3 -7 6 28 6 28 11 -7 81 -16 31 -34 76 -40 98 -7
26 -18 44 -29 46 -16 5 -72 101 -72 124 0 5 -13 21 -30 36 -22 19 -30 35 -30
58 0 18 -9 43 -20 57 -11 14 -20 32 -20 40 0 8 -35 50 -77 94 -43 44 -80 85
-82 92 -5 13 -41 47 -50 47 -4 0 -15 15 -25 34 -10 18 -29 40 -43 47 -14 7
-42 34 -64 60 -22 26 -59 59 -82 73 -23 14 -64 47 -90 74 -28 29 -65 55 -88
62 -25 8 -51 28 -67 48 -14 19 -36 38 -49 43 -27 10 -43 41 -25 47 7 2 12 15
12 30 0 14 7 33 16 43 14 16 14 18 -5 24 -25 8 -27 22 -5 46 36 40 -20 52 -86
19 -45 -23 -58 -39 -39 -51 11 -6 10 -11 -4 -27 -29 -32 -22 -45 23 -38 45 7
55 -9 15 -24 -17 -6 -23 -14 -18 -26 5 -12 7 -13 14 -2 7 10 9 9 9 -4 0 -27
-23 -26 -50 2 -14 15 -38 33 -55 41 -26 13 -30 20 -27 48 3 35 -21 65 -46 56
-7 -3 -11 -1 -8 3 9 15 -20 38 -64 49 -51 13 -63 9 -55 -17 6 -20 -26 -37 -46
-24 -6 3 -28 7 -48 8 -30 2 -154 65 -128 66 4 0 2 6 -5 14 -7 8 -16 12 -20 10
-4 -3 -21 4 -39 15 -18 11 -36 18 -41 15 -5 -3 -23 5 -41 19 -18 13 -45 27
-60 31 -16 4 -52 18 -80 31 -28 14 -56 25 -63 25 -7 0 -25 10 -41 23 -73 58
-182 89 -262 75z m-491 -218 c0 -5 -4 -10 -10 -10 -5 0 -10 5 -10 10 0 6 5 10
10 10 6 0 10 -4 10 -10z m37 4 c-3 -3 -12 -4 -19 -1 -8 3 -5 6 6 6 11 1 17 -2
13 -5z m-247 -399 c0 -8 -4 -15 -10 -15 -5 0 -7 7 -4 15 4 8 8 15 10 15 2 0 4
-7 4 -15z m-30 1 c0 -3 -4 -8 -10 -11 -5 -3 -10 -1 -10 4 0 6 5 11 10 11 6 0
10 -2 10 -4z m-60 -46 c-17 -17 -24 -19 -36 -9 -20 17 -18 24 14 35 37 14 49
1 22 -26z m-235 -40 c-3 -5 -11 -10 -16 -10 -6 0 -7 5 -4 10 3 6 11 10 16 10
6 0 7 -4 4 -10z m-398 -32 c-3 -7 -5 -2 -5 12 0 14 2 19 5 13 2 -7 2 -19 0
-25z m23 -61 c0 -10 -39 -47 -49 -47 -16 0 -14 11 7 31 15 16 42 25 42 16z
m319 -143 c-6 -7 -15 -11 -21 -8 -5 3 -4 12 3 20 6 7 15 11 21 8 5 -3 4 -12
-3 -20z m636 -44 c-3 -5 -11 -10 -16 -10 -6 0 -7 5 -4 10 3 6 11 10 16 10 6 0
7 -4 4 -10z m-924 -58 c-7 -2 -18 1 -23 6 -8 8 -4 9 13 5 13 -4 18 -8 10 -11z
m659 -22 c0 -5 -7 -10 -15 -10 -8 0 -15 -5 -15 -11 0 -6 -6 -9 -12 -6 -7 2
-27 -1 -44 -8 -18 -8 -37 -9 -45 -4 -19 11 -12 15 51 32 68 19 80 20 80 7z
m-345 -60 c3 -5 1 -10 -4 -10 -6 0 -11 5 -11 10 0 6 2 10 4 10 3 0 8 -4 11
-10z m1395 -69 c0 -20 -26 -59 -34 -50 -8 8 16 79 26 73 4 -3 8 -13 8 -23z
m-1605 -50 c-23 -23 -82 -41 -71 -22 4 6 13 11 20 11 8 0 19 7 26 15 7 8 20
15 28 15 14 0 13 -3 -3 -19z m2062 -23 c-3 -7 -5 -2 -5 12 0 14 2 19 5 13 2
-7 2 -19 0 -25z m-508 -15 c1 10 5 16 10 13 4 -3 6 -17 4 -31 -3 -13 -9 -22
-14 -19 -5 3 -9 -2 -9 -10 0 -9 -5 -16 -10 -16 -18 0 -23 30 -9 56 12 23 14
24 20 7 7 -17 8 -17 8 0z m-2279 -12 c0 -8 -64 -34 -125 -50 -17 -4 -40 -13
-53 -20 -24 -13 -29 -6 -9 12 31 31 73 49 119 53 28 2 54 6 56 9 8 7 12 6 12
-4z m117 -47 c-3 -3 -12 -4 -19 -1 -8 3 -5 6 6 6 11 1 17 -2 13 -5z m397 -16
c-3 -13 -21 -35 -40 -51 -18 -15 -36 -36 -39 -47 -4 -11 -10 -18 -15 -15 -5 3
-12 -16 -16 -42 -3 -27 -10 -53 -14 -58 -5 -6 -8 -31 -8 -57 0 -27 -7 -57 -16
-69 -18 -27 -53 -35 -53 -14 0 8 3 15 6 15 3 0 6 24 7 54 0 35 8 68 23 97 13
24 33 62 44 84 12 22 21 42 22 45 2 17 25 41 55 58 46 27 53 27 44 0z m1564
-20 c-1 -18 -7 -47 -14 -64 -7 -17 -10 -34 -7 -38 4 -3 -1 -6 -10 -6 -22 0
-23 47 -2 76 8 12 11 24 8 28 -3 3 -1 6 5 6 7 0 12 7 12 15 0 8 2 15 4 15 3 0
4 -15 4 -32z m-78 -18 c0 -16 -7 -30 -16 -34 -13 -5 -15 -2 -10 16 3 13 6 31
6 41 0 10 5 15 10 12 6 -3 10 -19 10 -35z m-1420 5 c-7 -9 -15 -13 -19 -10 -3
3 1 10 9 15 21 14 24 12 10 -5z m105 -45 c-10 -11 -21 -18 -23 -15 -3 3 3 12
14 20 27 20 30 18 9 -5z m-295 6 c0 -2 -7 -7 -16 -10 -8 -3 -12 -2 -9 4 6 10
25 14 25 6z m3195 -6 c3 -5 1 -10 -4 -10 -6 0 -11 5 -11 10 0 6 2 10 4 10 3 0
8 -4 11 -10z m-4115 -14 c0 -2 -9 -6 -20 -9 -11 -3 -18 -1 -14 4 5 9 34 13 34
5z m2417 -58 c-3 -8 -6 -5 -6 6 -1 11 2 17 5 13 3 -3 4 -12 1 -19z m-1377 -17
c0 -6 -4 -13 -10 -16 -5 -3 -10 1 -10 9 0 9 5 16 10 16 6 0 10 -4 10 -9z
m-1010 -13 c0 -4 -9 -8 -21 -8 -11 0 -18 4 -15 8 3 5 12 9 21 9 8 0 15 -4 15
-9z m2579 -73 c1 -18 0 -18 -15 3 -10 14 -13 30 -8 45 l8 22 7 -25 c4 -14 7
-34 8 -45z m-2610 34 c-18 -11 -39 -11 -39 0 0 11 31 20 44 13 4 -2 2 -8 -5
-13z m1000 -16 c1 5 6 5 11 2 6 -4 7 -12 3 -18 -8 -12 -9 -17 -12 -37 0 -5 -7
-10 -15 -10 -10 0 -13 -13 -11 -49 1 -27 6 -54 9 -60 4 -6 0 -11 -8 -11 -10 0
-16 9 -16 25 0 14 -4 25 -10 25 -5 0 -10 9 -10 19 0 11 5 23 10 26 6 3 10 15
10 26 0 11 6 27 14 35 8 7 12 24 10 36 -4 21 -4 22 5 3 5 -11 10 -16 10 -12z
m931 -9 c0 -8 -9 -14 -20 -14 -22 0 -26 10 -8 28 13 13 28 7 28 -14z m-702
-31 c-2 -24 -8 -37 -15 -35 -8 1 -13 -8 -13 -20 0 -17 -3 -19 -9 -9 -8 13 0
68 13 90 15 23 27 10 24 -26z m-53 -77 c6 -48 5 -55 -8 -50 -24 9 -42 97 -25
123 12 19 13 20 19 2 4 -10 10 -43 14 -75z m-595 44 c0 -5 -2 -10 -4 -10 -3 0
-8 5 -11 10 -3 6 -1 10 4 10 6 0 11 -4 11 -10z m-30 -20 c0 -5 -7 -10 -15 -10
-8 0 -15 5 -15 10 0 6 7 10 15 10 8 0 15 -4 15 -10z m-810 -31 c0 -5 -9 -9
-20 -9 -22 0 -27 16 -7 23 15 5 27 -1 27 -14z m732 -9 c-12 -12 -22 -18 -22
-14 0 3 -6 2 -13 -4 -7 -6 -18 -7 -25 -3 -17 10 5 29 45 40 37 11 41 5 15 -19z
m398 -28 c0 -10 -7 -27 -15 -38 -13 -18 -14 -17 -9 10 8 45 24 64 24 28z
m-250 -8 c0 -9 -42 -45 -47 -40 -6 5 29 46 39 46 5 0 8 -3 8 -6z m-290 -56 c0
-5 -8 -8 -18 -8 -10 0 -22 -4 -28 -9 -5 -5 -28 -12 -51 -15 -118 -17 -125 -18
-112 -27 11 -7 10 -9 -3 -9 -10 0 -18 6 -18 13 -1 7 -7 4 -15 -7 -8 -10 -33
-23 -57 -28 -24 -5 -59 -12 -78 -17 -20 -4 -41 -6 -48 -3 -22 7 37 32 74 32
20 0 66 16 106 36 48 24 78 34 94 30 13 -4 24 -3 24 2 0 13 52 36 78 33 12 -1
22 3 22 10 0 13 29 -20 30 -33z m628 -65 c-23 -86 -38 -113 -38 -68 0 52 24
134 40 139 8 2 16 4 17 5 1 0 -8 -34 -19 -76z m2594 50 c34 -36 47 -83 23 -83
-18 0 -45 23 -45 39 0 6 -4 11 -9 11 -10 0 -22 40 -15 52 9 14 19 9 46 -19z
m-2282 3 c0 -8 -4 -17 -9 -21 -12 -7 -24 12 -16 25 9 15 25 12 25 -4z m3537
-24 c-9 -11 -13 -11 -24 4 -19 27 -16 33 11 21 19 -9 22 -15 13 -25z m-1057
-34 c6 -21 15 -36 20 -33 6 4 10 -1 10 -10 0 -26 -19 -13 -57 38 l-35 47 25
-2 c20 -2 28 -10 37 -40z m-118 -10 c-15 -15 -26 -4 -18 18 5 13 9 15 18 6 9
-9 9 -15 0 -24z m248 13 c13 -25 13 -44 0 -36 -6 4 -8 10 -5 15 3 4 -2 10 -10
14 -8 3 -15 10 -15 16 0 17 19 11 30 -9z m-3534 -27 c-12 -18 -27 -33 -33 -34
-22 0 -14 -20 7 -20 11 0 20 -7 20 -16 0 -8 -4 -12 -10 -9 -5 3 -10 2 -10 -4
0 -5 -18 -12 -39 -16 -22 -4 -45 -13 -52 -21 -6 -8 -17 -14 -24 -14 -7 0 -23
-9 -37 -20 -17 -13 -28 -16 -35 -9 -8 8 -17 8 -31 0 -27 -14 -32 -14 -32 3 0
8 13 17 29 21 16 3 35 13 42 21 6 8 19 14 29 14 22 0 60 33 60 53 0 10 -6 13
-20 10 -11 -3 -20 -9 -20 -14 0 -5 -7 -9 -17 -9 -20 0 -120 -46 -128 -60 -3
-6 -18 -10 -33 -10 -26 1 -26 1 -7 16 11 8 28 21 38 30 10 8 23 14 30 13 7 -1
19 0 27 3 18 7 41 15 55 18 6 1 26 15 46 31 43 34 53 36 44 10 -5 -17 -2 -19
22 -15 15 3 39 18 52 33 34 39 53 36 27 -5z m2911 14 c-3 -8 -6 -5 -6 6 -1 11
2 17 5 13 3 -3 4 -12 1 -19z m-1157 8 c0 -3 -4 -8 -10 -11 -5 -3 -10 -1 -10 4
0 6 5 11 10 11 6 0 10 -2 10 -4z m-1646 -21 c-3 -8 -16 -17 -27 -21 -12 -4
-24 -10 -27 -14 -10 -15 -50 -22 -50 -9 0 7 3 9 6 6 4 -4 25 7 47 23 45 33 59
37 51 15z m-379 -44 c-3 -6 -11 -8 -17 -5 -6 4 -5 9 3 15 16 10 23 4 14 -10z
m1019 7 c-3 -4 2 -22 10 -39 13 -26 13 -33 2 -45 -12 -11 -16 -8 -26 19 -6 18
-16 40 -20 49 -6 11 -5 18 3 21 20 6 36 4 31 -5z m2221 -26 c8 -31 32 -51 63
-52 12 0 22 -6 22 -12 0 -7 3 -23 6 -36 6 -21 5 -21 -23 -10 -35 16 -93 79
-93 103 0 11 -5 15 -15 11 -9 -3 -15 0 -15 8 0 35 45 25 55 -12z m-3405 18 c0
-5 -7 -10 -15 -10 -8 0 -15 5 -15 10 0 6 7 10 15 10 8 0 15 -4 15 -10z m3329
-78 c-12 -5 -48 38 -49 57 0 7 13 -2 30 -20 16 -19 25 -36 19 -37z m-2194 29
c-3 -12 -10 -21 -15 -21 -4 0 -3 11 3 24 14 29 22 27 12 -3z m1518 -5 c4 -10
1 -13 -9 -9 -7 3 -14 9 -14 14 0 14 17 10 23 -5z m-343 -31 c0 -3 -9 -1 -20 5
-11 6 -18 15 -15 21 6 9 35 -12 35 -26z m875 25 c3 -5 1 -10 -4 -10 -6 0 -11
5 -11 10 0 6 2 10 4 10 3 0 8 -4 11 -10z m513 -25 c-3 -3 -9 2 -12 12 -6 14
-5 15 5 6 7 -7 10 -15 7 -18z m-428 -7 c0 -6 -6 -5 -15 2 -8 7 -15 14 -15 16
0 2 7 1 15 -2 8 -4 15 -11 15 -16z m-47 -56 c16 -24 29 -52 30 -63 1 -10 5
-19 9 -19 4 0 8 -4 8 -10 0 -5 -7 -10 -15 -10 -14 0 -19 11 -16 38 1 6 -9 22
-22 35 -33 30 -48 62 -40 83 5 14 8 15 12 3 3 -8 19 -34 34 -57z m-3163 50 c0
-5 -7 -9 -15 -9 -8 0 -12 4 -9 9 3 4 9 8 15 8 5 0 9 -4 9 -8z m2255 -11 c3 -5
1 -12 -5 -16 -5 -3 -10 1 -10 9 0 18 6 21 15 7z m1345 -1 c0 -5 -2 -10 -4 -10
-3 0 -8 5 -11 10 -3 6 -1 10 4 10 6 0 11 -4 11 -10z m491 -13 c-1 -12 -15 -9
-19 4 -3 6 1 10 8 8 6 -3 11 -8 11 -12z m-576 -32 c37 -9 75 -32 75 -45 0 -6
-14 -4 -30 5 -23 12 -35 13 -50 5 -35 -19 -60 -3 -60 37 0 34 1 35 18 20 9 -8
31 -19 47 -22z m625 -5 c0 -5 -2 -10 -4 -10 -3 0 -8 5 -11 10 -3 6 -1 10 4 10
6 0 11 -4 11 -10z m-1045 -60 c3 -5 1 -10 -4 -10 -6 0 -11 5 -11 10 0 6 2 10
4 10 3 0 8 -4 11 -10z m-211 -55 c-4 -8 -8 -15 -10 -15 -2 0 -4 7 -4 15 0 8 4
15 10 15 5 0 7 -7 4 -15z m543 -27 c-3 -8 -6 -5 -6 6 -1 11 2 17 5 13 3 -3 4
-12 1 -19z m53 -28 c0 -11 -7 -20 -15 -20 -8 0 -15 9 -15 20 0 11 7 20 15 20
8 0 15 -9 15 -20z m1100 4 c0 -8 -4 -12 -10 -9 -5 3 -10 10 -10 16 0 5 5 9 10
9 6 0 10 -7 10 -16z m-20 -211 c0 -12 -2 -12 -15 1 -8 8 -15 17 -15 20 0 3 7
3 15 0 8 -4 15 -13 15 -21z m150 -303 c0 -17 -15 -11 -28 11 -12 19 -11 19 8
9 11 -6 20 -15 20 -20z m20 -20 c0 -5 -5 -10 -11 -10 -5 0 -7 5 -4 10 3 6 8
10 11 10 2 0 4 -4 4 -10z m160 -31 c0 -6 -4 -7 -10 -4 -5 3 -10 11 -10 16 0 6
5 7 10 4 6 -3 10 -11 10 -16z"/>
<path d="M1231 5924 c0 -11 3 -14 6 -6 3 7 2 16 -1 19 -3 4 -6 -2 -5 -13z"/>
<path d="M3706 7297 c3 -10 9 -15 12 -12 3 3 0 11 -7 18 -10 9 -11 8 -5 -6z"/>
<path d="M4235 7251 c-15 -6 -10 -9 24 -15 47 -7 65 -1 41 14 -18 11 -38 12
-65 1z"/>
<path d="M4328 7233 c7 -3 16 -2 19 1 4 3 -2 6 -13 5 -11 0 -14 -3 -6 -6z"/>
<path d="M1633 7096 c-19 -9 -32 -26 -20 -26 8 0 67 32 67 36 0 7 -24 2 -47
-10z"/>
<path d="M1553 7073 c-33 -6 -28 -22 5 -18 15 2 30 4 35 4 4 1 7 6 7 11 0 10
-8 11 -47 3z"/>
<path d="M1480 7033 c-13 -15 -12 -16 4 -10 10 4 22 7 27 7 5 0 9 5 9 10 0 15
-23 11 -40 -7z"/>
<path d="M1413 7008 c-12 -11 -34 -22 -48 -24 -15 -2 -35 -9 -44 -17 -9 -8
-61 -27 -116 -41 -55 -15 -109 -35 -119 -46 -19 -18 -18 -18 25 -13 24 3 66
16 92 29 27 13 52 24 57 24 5 0 21 5 37 12 15 6 36 13 45 14 26 6 97 57 98 72
0 16 -2 16 -27 -10z"/>
<path d="M1485 6970 c-3 -5 -1 -10 4 -10 6 0 11 5 11 10 0 6 -2 10 -4 10 -3 0
-8 -4 -11 -10z"/>
<path d="M1284 6818 c-3 -4 4 -8 15 -8 11 0 22 4 25 8 2 4 -4 8 -15 8 -11 0
-23 -4 -25 -8z"/>
<path d="M1165 6780 c-3 -5 1 -10 9 -10 9 0 16 5 16 10 0 6 -4 10 -9 10 -6 0
-13 -4 -16 -10z"/>
<path d="M960 6610 c0 -5 5 -10 11 -10 5 0 7 5 4 10 -3 6 -8 10 -11 10 -2 0
-4 -4 -4 -10z"/>
<path d="M875 6588 c-33 -4 -67 -11 -75 -14 -8 -4 -23 -6 -32 -5 -19 2 -22 -7
-10 -26 10 -15 132 -5 132 11 0 7 15 11 35 10 40 -2 52 7 27 22 -10 6 -40 7
-77 2z"/>
<path d="M1199 6536 c-2 -2 -22 -7 -44 -10 -114 -18 -275 -68 -275 -85 0 -12
95 -2 139 13 24 9 52 16 62 16 43 0 117 22 143 43 l28 22 -25 3 c-13 1 -26 0
-28 -2z"/>
<path d="M458 6357 c-16 -6 -28 -15 -28 -20 0 -4 -10 -5 -22 -2 -17 6 -20 4
-15 -10 4 -9 7 -18 7 -19 0 -1 24 9 54 23 30 13 53 28 50 33 -6 10 -11 9 -46
-5z"/>
<path d="M344 6308 c-3 -4 -2 -8 3 -9 4 0 16 -2 26 -4 9 -2 17 2 17 9 0 13
-39 16 -46 4z"/>
<path d="M310 6270 c0 -5 9 -10 19 -10 11 0 23 5 26 10 4 6 -5 10 -19 10 -14
0 -26 -4 -26 -10z"/>
<path d="M235 6210 c-3 -5 -1 -10 4 -10 6 0 11 5 11 10 0 6 -2 10 -4 10 -3 0
-8 -4 -11 -10z"/>
<path d="M0 6156 c0 -9 5 -16 10 -16 6 0 10 4 10 9 0 6 -4 13 -10 16 -5 3 -10
-1 -10 -9z"/>
<path d="M230 6141 c0 -14 5 -18 20 -14 11 3 20 7 20 9 0 2 -9 8 -20 14 -17 9
-20 8 -20 -9z"/>
<path d="M1735 5730 c-3 -5 3 -10 14 -10 12 0 21 5 21 10 0 6 -6 10 -14 10 -8
0 -18 -4 -21 -10z"/>
<path d="M1745 5610 c-4 -7 -3 -16 3 -22 14 -14 45 -2 40 15 -6 16 -34 21 -43
7z"/>
<path d="M4038 5473 c-23 -6 -23 -15 2 -30 14 -9 21 -10 26 -1 4 7 13 2 25
-13 l19 -24 0 22 c0 25 -43 52 -72 46z"/>
<path d="M2290 5425 c0 -8 4 -15 10 -15 5 0 7 -7 4 -14 -6 -15 48 -76 66 -76
11 0 -28 87 -47 108 -16 17 -33 15 -33 -3z"/>
<path d="M4130 5421 c0 -6 5 -13 10 -16 6 -3 10 1 10 9 0 9 -4 16 -10 16 -5 0
-10 -4 -10 -9z"/>
<path d="M2997 5380 c3 -11 9 -20 15 -20 5 0 4 9 -2 20 -6 11 -12 20 -14 20
-2 0 -2 -9 1 -20z"/>
<path d="M2535 5370 c3 -5 8 -10 11 -10 2 0 4 5 4 10 0 6 -5 10 -11 10 -5 0
-7 -4 -4 -10z"/>
<path d="M2450 5360 c0 -5 7 -10 16 -10 8 0 12 5 9 10 -3 6 -10 10 -16 10 -5
0 -9 -4 -9 -10z"/>
<path d="M3227 5314 c-4 -4 -7 -13 -7 -21 0 -18 35 -17 50 2 8 9 8 15 2 15 -6
0 -17 2 -24 5 -8 3 -17 2 -21 -1z"/>
<path d="M4138 5289 c-26 -4 -62 -19 -81 -33 -19 -14 -37 -26 -41 -26 -5 0
-21 -9 -37 -21 -39 -28 -77 -108 -84 -177 -3 -31 -10 -59 -17 -63 -7 -4 -13
-20 -14 -36 -3 -40 -3 -40 -15 -23 -7 11 -8 -5 -3 -52 4 -47 3 -68 -5 -68 -6
0 -11 -7 -11 -15 0 -8 -4 -15 -9 -15 -5 0 -12 -11 -15 -25 -4 -16 -11 -22 -21
-19 -9 4 -15 0 -15 -9 0 -9 -8 -20 -17 -25 -13 -8 -18 -32 -23 -123 -4 -72 -2
-119 4 -128 7 -9 6 -17 -7 -26 -24 -17 -21 -25 8 -25 15 0 25 6 25 14 0 10 11
12 43 9 31 -4 56 1 87 16 24 12 51 21 60 21 26 0 58 -28 64 -58 4 -15 27 -59
51 -97 25 -38 43 -76 40 -83 -3 -8 -5 -18 -5 -23 0 -10 -45 -31 -68 -33 -7 -1
-17 -8 -22 -16 -8 -12 -10 -11 -10 7 0 16 -5 20 -20 16 -12 -3 -20 0 -20 7 0
9 -7 7 -20 -5 -11 -10 -20 -14 -20 -9 0 5 -8 -3 -17 -16 -9 -13 -20 -51 -24
-83 -4 -32 -14 -66 -23 -76 -9 -10 -16 -24 -16 -32 -1 -24 -37 -59 -62 -59
-21 -1 -21 -1 -5 -11 14 -8 22 -8 30 0 19 19 31 12 50 -26 15 -29 16 -38 5
-44 -9 -6 -14 -2 -16 11 -2 11 -7 20 -12 20 -5 0 -7 -7 -4 -15 9 -22 -9 -18
-24 5 -7 11 -17 20 -22 20 -6 0 -27 16 -47 35 -41 38 -53 43 -53 20 0 -8 -6
-15 -14 -15 -7 0 -27 -7 -42 -15 l-29 -15 43 0 c30 0 42 -4 42 -14 0 -19 -72
-44 -78 -27 -4 13 -82 15 -82 2 0 -5 6 -11 13 -14 7 -2 8 -8 3 -13 -5 -5 -11
-4 -13 4 -7 18 -24 15 -49 -9 -25 -23 -54 -20 -54 6 0 10 10 15 34 15 l34 0
-10 48 c-14 67 -27 78 -70 58 -19 -9 -35 -22 -36 -29 0 -7 -4 -22 -7 -34 -5
-15 -3 -23 4 -23 6 0 11 -9 11 -20 0 -11 9 -25 20 -32 21 -14 28 -48 9 -48 -7
0 -17 -7 -23 -16 -7 -9 -18 -12 -29 -8 -21 8 -22 24 -1 24 22 0 12 24 -12 28
-24 3 -55 -17 -36 -25 21 -8 13 -39 -14 -51 -14 -7 -23 -8 -19 -2 7 11 -23 2
-42 -12 -7 -5 -14 -5 -17 1 -3 5 -15 7 -26 4 -22 -6 -27 -44 -11 -86 5 -13 6
-30 1 -37 -10 -16 -2 -40 12 -40 7 0 9 16 5 39 l-5 39 29 -10 c17 -6 29 -17
29 -28 0 -10 3 -31 6 -47 9 -45 -14 -63 -68 -52 -24 4 -46 8 -50 9 -5 0 -8 8
-8 18 0 14 2 15 10 2 5 -8 12 -11 16 -7 4 4 -1 16 -11 27 -14 16 -20 17 -27 8
-12 -21 -14 40 -2 115 4 24 2 37 -5 37 -6 0 -11 -11 -11 -23 0 -16 -9 -28 -25
-35 -14 -6 -25 -16 -25 -22 0 -5 -8 -10 -18 -10 -27 0 -17 -53 18 -90 23 -25
25 -30 10 -30 -21 0 -33 -45 -16 -59 22 -17 66 -22 66 -8 0 16 97 15 129 -2
18 -10 19 -14 8 -31 -13 -22 -47 -27 -47 -7 0 8 -2 9 -8 1 -4 -6 -22 -15 -39
-19 -18 -3 -33 -12 -33 -18 0 -7 -7 -4 -14 6 -15 19 -36 23 -36 7 0 -6 7 -22
16 -35 9 -14 13 -32 9 -45 -6 -20 -4 -21 32 -14 45 8 55 13 49 23 -3 4 19 6
49 3 37 -3 55 -1 55 7 0 6 -7 11 -15 11 -18 0 -20 16 -3 26 6 4 14 2 16 -4 2
-7 11 -12 20 -12 10 -1 27 -6 38 -13 16 -9 19 -17 13 -32 -6 -15 -8 -16 -8 -4
-1 20 -51 21 -51 2 0 -7 -7 -13 -16 -13 -17 0 -44 -23 -44 -38 0 -5 -14 -15
-30 -22 -17 -7 -33 -17 -36 -22 -9 -14 16 -38 41 -38 13 0 33 -11 44 -26 27
-34 26 -44 0 -44 -18 0 -21 -4 -16 -30 5 -23 2 -33 -15 -44 -16 -12 -20 -22
-15 -48 3 -18 3 -27 0 -20 -2 6 -13 12 -23 12 -10 0 -24 14 -34 35 -9 19 -23
41 -31 49 -20 20 -23 58 -6 64 10 3 12 -1 8 -17 -3 -11 -1 -21 4 -21 5 0 9 7
9 15 0 8 10 25 22 37 20 20 21 23 6 26 -11 2 -21 19 -26 45 -8 32 -10 36 -11
15 -1 -22 -7 -29 -37 -37 -19 -5 -41 -8 -49 -5 -7 3 -16 1 -20 -5 -3 -6 -15
-11 -26 -11 -10 0 -19 -4 -19 -9 0 -5 -7 -17 -17 -26 -11 -12 -16 -32 -14 -67
1 -28 -3 -55 -7 -62 -18 -22 -24 -69 -10 -78 9 -7 8 -8 -5 -4 -10 3 -23 6 -28
6 -5 0 -9 7 -9 15 0 18 2 18 -46 2 -22 -7 -46 -12 -54 -11 -8 1 -21 2 -27 3
-7 0 -13 6 -13 12 0 6 5 9 12 7 14 -5 53 31 43 40 -3 3 -15 1 -25 -6 -25 -15
-26 -4 -2 15 16 13 15 14 -5 8 -12 -3 -31 -1 -42 4 -14 8 -20 8 -23 -1 -6 -18
-38 -1 -38 19 0 13 2 15 8 5 11 -17 42 -4 42 18 0 12 -7 17 -25 15 -20 -3 -25
1 -25 20 0 13 -5 27 -12 31 -8 5 -9 -2 -5 -27 l6 -34 -19 37 -20 37 -29 -17
c-16 -9 -27 -20 -25 -24 3 -5 -12 -8 -33 -8 -31 0 -39 4 -39 19 0 11 5 17 13
14 7 -3 13 0 13 7 0 6 6 10 12 8 7 -3 21 4 32 13 10 10 23 16 28 13 4 -3 10 2
13 10 3 9 7 23 10 32 4 13 8 14 20 4 13 -11 15 -8 16 16 0 25 1 26 9 9 8 -20
9 -20 9 1 1 22 30 54 48 54 6 0 14 7 17 16 9 24 8 26 -11 16 -10 -5 -39 -13
-65 -16 -26 -4 -50 -11 -53 -16 -3 -5 -21 -17 -40 -26 -34 -16 -39 -34 -9 -34
9 0 14 -11 14 -35 0 -35 0 -35 -20 -15 -22 22 -60 27 -60 8 0 -10 -3 -9 -9 1
-7 11 -11 10 -20 -5 -10 -18 -10 -18 -11 3 0 12 4 23 9 25 17 6 17 42 0 46
-23 4 -31 -93 -11 -125 22 -36 27 -92 8 -99 -9 -3 -16 -16 -15 -28 0 -11 3
-15 6 -8 7 17 21 15 26 -5 3 -11 5 -6 6 11 0 16 4 26 8 23 3 -4 12 1 18 10 11
15 14 14 25 -7 12 -23 13 -23 26 -5 9 11 14 14 14 6 0 -7 -11 -22 -25 -33 -14
-11 -22 -24 -19 -29 3 -6 -3 -13 -15 -16 -12 -3 -21 -10 -21 -15 0 -5 -4 -6
-10 -3 -6 3 -7 -1 -4 -9 3 -9 12 -16 19 -16 8 0 20 -13 29 -30 14 -30 14 -30
-12 -31 -24 0 -25 -1 -7 -9 11 -5 32 -9 47 -9 14 -1 28 -7 31 -13 3 -10 9 -10
26 0 19 11 21 10 21 -13 0 -14 5 -25 11 -25 5 0 7 4 4 10 -3 5 -2 18 4 27 7
13 8 1 5 -42 -3 -33 -7 -66 -9 -72 -3 -9 8 -13 34 -13 31 0 44 6 65 31 l26 31
0 -31 c0 -25 -4 -31 -22 -32 -13 0 -17 -3 -10 -6 23 -9 12 -31 -20 -36 -80
-14 -100 -20 -105 -33 -2 -7 -10 -11 -17 -8 -9 3 -17 -15 -27 -58 -8 -38 -15
-54 -17 -40 -4 25 -22 30 -22 6 0 -13 -3 -14 -14 -5 -10 8 -16 9 -21 2 -3 -6
5 -16 19 -23 33 -15 34 -32 1 -26 -22 5 -25 2 -26 -26 0 -29 -1 -29 -9 -8 -5
12 -13 22 -19 22 -13 0 -41 -46 -41 -67 0 -14 -2 -15 -9 -4 -7 11 -9 8 -10
-10 -3 -67 -7 -87 -15 -82 -4 3 -12 -1 -17 -8 -6 -10 -9 -11 -9 -1 0 18 -18
15 -23 -5 -3 -11 -5 -6 -6 11 0 16 -4 26 -9 22 -4 -4 -7 -11 -7 -14 0 -18 -31
-79 -47 -93 -28 -25 -24 -51 7 -43 20 5 25 2 25 -13 0 -19 -28 -53 -43 -53 -4
0 -7 9 -7 20 0 14 -7 20 -21 20 -19 0 -21 -5 -17 -44 3 -44 3 -44 -26 -41 -16
2 -32 8 -35 14 -4 5 -19 14 -34 20 -24 9 -27 8 -27 -9 0 -11 -5 -20 -11 -20
-6 0 -1 -8 11 -18 25 -20 20 -42 -9 -42 -10 0 -30 9 -45 21 -14 11 -26 15 -26
9 0 -6 -5 -8 -11 -4 -8 5 -10 -1 -5 -19 5 -21 3 -26 -12 -24 -14 1 -17 7 -14
24 6 31 -14 30 -22 -2 -4 -15 -11 -22 -20 -19 -7 3 -16 -2 -19 -10 -9 -23 -30
-20 -24 4 3 10 0 21 -7 24 -7 3 -6 8 4 15 16 11 15 12 -15 30 -18 10 -17 11
10 6 27 -5 27 -4 7 5 -12 5 -25 16 -28 24 -8 20 -89 16 -89 -4 0 -8 -4 -18
-10 -22 -7 -5 -7 -11 0 -15 6 -5 16 -20 22 -36 11 -23 10 -27 -3 -27 -11 0
-14 6 -10 16 3 9 2 12 -5 8 -6 -3 -17 3 -25 15 -20 29 -41 26 -47 -5 -7 -39 3
-66 22 -59 39 15 39 14 25 -50 -9 -42 -22 -55 -55 -55 -19 0 -29 -5 -29 -15 0
-9 -6 -12 -15 -9 -21 8 -19 -2 5 -23 19 -19 19 -19 0 -19 -20 0 -22 4 -22 31
0 40 4 53 23 73 19 21 19 27 9 77 -6 30 -16 57 -21 60 -5 4 -9 14 -9 23 0 14
4 13 18 -6 l17 -22 14 21 c11 19 11 21 -2 16 -12 -4 -12 -1 -3 19 6 13 14 24
19 24 4 0 7 4 7 10 0 5 -7 7 -15 4 -8 -4 -15 -2 -15 2 -1 5 -5 29 -9 53 -7 34
-5 50 6 68 14 21 14 26 -1 48 -9 13 -16 33 -16 43 0 11 -7 25 -15 32 -9 7 -15
20 -14 29 4 42 -2 82 -11 76 -5 -3 -10 2 -10 13 0 15 -6 19 -25 17 -19 -3 -25
1 -25 16 0 10 5 19 10 19 22 0 -26 49 -53 55 -16 4 -33 17 -39 30 -9 20 -14
22 -29 12 -24 -15 -36 -1 -21 23 16 27 15 50 -3 50 -11 0 -15 11 -15 40 0 22
-4 40 -10 40 -5 0 -10 -12 -10 -27 l-1 -28 -20 24 c-14 17 -16 26 -8 31 8 6 8
9 -1 15 -6 4 -17 2 -23 -4 -11 -11 -47 -15 -47 -5 0 3 14 20 31 37 l31 31 18
-24 17 -23 7 28 c4 16 3 32 -3 38 -8 8 -11 7 -11 -3 0 -13 -2 -13 -10 0 -9 13
-11 13 -19 0 -8 -12 -11 -11 -17 5 -7 18 -8 18 -15 -1 -6 -16 -8 -14 -8 9 -1
21 5 30 19 34 11 3 20 7 20 9 0 10 -36 44 -46 44 -7 0 -14 7 -18 15 -3 8 -13
15 -22 15 -8 0 -14 6 -11 13 2 6 13 11 23 10 10 -1 22 3 26 10 5 8 18 7 47 -3
38 -12 43 -12 55 5 9 12 15 15 20 6 5 -7 22 -9 49 -5 39 6 76 24 49 24 -7 0
-12 5 -12 11 0 7 11 9 26 6 22 -4 25 -2 20 18 -5 18 -1 24 18 29 16 4 31 21
45 52 18 37 26 45 45 42 26 -3 56 17 56 38 0 8 6 14 14 14 17 0 30 25 36 70 1
11 4 9 10 -5 9 -20 9 -20 9 0 1 11 10 26 21 33 11 7 20 20 20 30 0 9 7 30 15
46 8 15 15 33 15 38 0 5 7 16 15 24 8 9 15 25 15 36 0 21 25 83 44 107 6 8 11
38 12 67 0 35 6 60 17 72 9 10 17 25 17 33 0 8 9 20 21 27 14 9 18 19 14 32
-4 14 -2 20 9 20 20 0 20 10 0 60 -12 29 -15 55 -10 92 7 48 6 50 -13 45 -17
-4 -21 -1 -20 21 0 24 1 25 9 7 5 -11 9 -15 9 -8 2 24 -12 43 -30 43 -19 0
-23 8 -20 45 1 15 0 17 -7 7 -7 -11 -15 -7 -32 18 -29 41 -59 53 -82 32 -16
-14 -20 -13 -37 2 -10 9 -25 14 -33 11 -9 -4 -18 1 -22 10 -4 10 -12 15 -22
11 -8 -3 -12 -2 -9 4 13 21 -54 10 -69 -11 -10 -14 -21 -19 -32 -15 -9 4 -14
9 -11 12 9 9 -21 36 -32 29 -5 -3 -12 -1 -16 5 -3 5 -17 7 -31 4 -18 -5 -24
-2 -24 11 0 9 -4 13 -10 10 -5 -3 -10 2 -10 12 0 15 -2 16 -10 3 -8 -13 -10
-13 -10 1 0 9 -7 20 -16 23 -12 5 -14 1 -8 -16 5 -17 3 -20 -10 -15 -10 4 -16
1 -16 -7 0 -19 -100 -26 -107 -8 -6 14 -59 16 -68 2 -3 -5 -15 -10 -26 -10
-11 0 -22 -6 -25 -14 -3 -8 -14 -14 -25 -13 -11 1 -17 7 -15 14 7 18 -1 16
-52 -8 -24 -12 -46 -29 -49 -38 -11 -30 -56 -71 -79 -71 -12 0 -25 -6 -27 -12
-4 -10 -6 -10 -6 -1 -1 18 -31 4 -31 -14 0 -22 -122 -144 -139 -138 -8 3 -11
0 -8 -7 3 -8 -5 -14 -22 -15 -14 0 -30 -9 -36 -19 -5 -10 -29 -38 -53 -62 -23
-24 -42 -53 -42 -63 0 -11 -4 -19 -10 -19 -5 0 -10 -9 -10 -19 0 -11 -5 -23
-11 -26 -5 -4 -14 -18 -20 -32 -5 -13 -13 -21 -19 -18 -5 3 -10 -3 -10 -14 0
-11 5 -23 10 -26 6 -4 8 -15 5 -25 -6 -18 11 -66 32 -87 9 -10 8 -20 -4 -44
-14 -28 -14 -31 3 -44 11 -8 14 -15 8 -15 -16 0 -28 -50 -15 -63 7 -7 18 -5
35 7 24 15 26 15 36 -3 5 -11 10 -29 10 -41 0 -24 54 -80 77 -80 10 0 13 -6 9
-16 -6 -17 19 -74 33 -74 14 0 33 -67 26 -91 -5 -15 -2 -22 13 -26 12 -3 22
-16 25 -33 3 -15 14 -30 24 -34 10 -4 38 -17 63 -31 34 -19 47 -22 58 -12 11
9 17 7 27 -6 10 -14 14 -15 18 -5 4 10 8 10 16 -2 10 -13 12 -13 22 0 8 12 9
10 4 -7 -7 -24 9 -32 18 -9 3 7 23 16 45 20 22 3 43 12 45 18 3 7 6 1 6 -14 1
-21 -3 -25 -19 -21 -11 3 -20 0 -20 -6 0 -6 6 -11 14 -11 8 0 17 -6 19 -12 4
-8 6 -7 6 3 1 21 31 48 31 28 -1 -8 -7 -25 -15 -39 -8 -14 -14 -35 -15 -48 0
-12 -7 -25 -15 -28 -22 -9 -18 -31 5 -37 13 -3 20 -14 20 -29 0 -12 4 -18 8
-13 4 6 15 11 24 11 13 1 15 -5 11 -32 -4 -22 -2 -34 6 -34 6 0 12 12 12 28 1
17 3 21 6 9 3 -10 0 -32 -6 -49 -13 -36 -8 -46 14 -28 19 16 19 0 0 -26 -15
-19 -16 -18 -40 10 -26 28 -49 30 -26 2 10 -12 10 -23 1 -51 -11 -32 -10 -38
7 -51 13 -11 14 -17 6 -20 -7 -3 -12 -15 -12 -27 1 -17 2 -18 6 -4 6 22 20 22
26 -1 2 -9 3 -7 2 5 -3 30 11 30 19 1 5 -19 8 -21 16 -8 8 12 10 10 10 -8 0
-25 21 -26 28 -1 3 11 2 11 -7 -1 -6 -8 -11 -10 -11 -4 0 5 6 19 14 29 12 17
13 15 11 -18 -3 -35 -2 -36 26 -30 25 5 30 2 39 -23 6 -16 22 -38 36 -50 21
-17 23 -25 15 -45 -7 -20 -21 -28 -66 -38 -31 -7 -59 -10 -62 -7 -4 3 -12 1
-20 -5 -7 -6 -13 -8 -13 -4 0 5 -9 0 -19 -9 -11 -10 -25 -15 -31 -11 -6 4 -16
2 -23 -3 -7 -5 -32 -12 -56 -16 -24 -4 -50 -15 -60 -26 -9 -11 -31 -21 -48
-22 -18 -1 -33 -6 -33 -11 0 -5 -6 -7 -14 -4 -7 3 -25 -1 -40 -8 -15 -8 -33
-12 -41 -8 -8 3 -15 1 -15 -4 0 -5 -6 -10 -12 -11 -7 -1 -40 -7 -73 -14 -46
-11 -63 -19 -72 -38 -15 -30 -17 -67 -3 -75 5 -3 10 -16 10 -28 0 -43 5 -75
13 -83 4 -4 7 1 8 12 0 17 1 17 9 -2 10 -26 87 -37 195 -28 201 16 268 6 329
-51 13 -12 38 -32 54 -44 17 -12 41 -42 53 -66 13 -25 30 -53 38 -63 9 -9 25
-34 36 -54 11 -21 23 -38 27 -38 3 0 8 -8 10 -17 3 -14 9 -10 26 17 30 48 28
66 -13 107 -19 19 -35 40 -35 47 0 6 -5 4 -10 -4 -8 -12 -10 -11 -10 6 0 12
-7 27 -15 34 -8 7 -15 19 -15 27 0 10 -6 12 -20 8 -14 -5 -20 -2 -20 10 0 9 4
13 10 10 5 -3 26 -2 46 4 30 8 35 8 30 -5 -3 -9 -1 -12 4 -9 6 3 13 -1 16 -9
3 -9 12 -16 20 -16 8 0 14 -10 14 -23 0 -24 18 -43 62 -66 15 -8 30 -23 34
-33 7 -24 41 -15 69 18 11 14 35 26 55 29 23 4 29 3 16 -3 -17 -7 -16 -9 8
-25 24 -16 39 -46 16 -32 -6 3 -14 -4 -19 -17 -4 -13 -12 -22 -17 -21 -13 4
-43 -5 -96 -30 -35 -16 -52 -31 -67 -63 -12 -22 -21 -47 -21 -55 0 -11 -2 -11
-10 1 -6 10 -10 11 -10 3 0 -7 -7 -13 -15 -13 -22 0 -18 -24 8 -47 25 -23 85
-46 98 -37 5 3 9 -1 9 -9 0 -15 15 -19 123 -37 62 -10 127 -36 127 -51 0 -10
36 -45 67 -66 19 -13 24 -13 46 2 22 14 25 14 38 -1 10 -12 23 -14 51 -10 l37
6 -21 -40 c-15 -27 -25 -37 -32 -30 -5 5 -18 10 -28 10 -31 0 -24 -69 12 -118
17 -23 34 -42 39 -42 5 0 13 -9 16 -20 4 -11 10 -18 15 -15 5 3 15 -1 22 -9
10 -9 40 -14 97 -14 45 0 88 -5 95 -11 7 -6 15 -9 18 -6 3 3 13 -4 23 -15 10
-11 22 -20 27 -20 5 0 16 -7 24 -15 9 -8 27 -15 40 -15 14 0 22 -4 19 -10 -6
-9 65 -60 85 -60 5 0 9 -5 7 -11 -1 -6 7 -13 18 -15 11 -1 29 -14 40 -27 11
-13 36 -42 56 -66 20 -23 42 -43 50 -44 8 -2 20 -6 27 -10 14 -10 32 -1 32 16
0 7 -4 6 -10 -3 -8 -12 -10 -10 -10 10 0 20 -2 22 -11 10 -9 -13 -10 -13 -6 0
2 8 13 15 25 15 11 0 25 4 29 9 4 4 4 7 -2 6 -23 -5 -25 2 -10 36 19 46 19 55
-1 47 -14 -5 -14 -3 -2 18 7 13 14 26 16 29 2 2 7 -2 11 -9 5 -7 7 26 6 73 -2
73 0 85 11 75 11 -9 14 -7 14 9 0 11 7 25 15 32 8 7 15 19 15 26 0 8 10 14 25
14 27 0 59 -48 49 -74 -8 -22 6 -42 17 -25 7 11 9 11 9 -1 0 -9 -5 -21 -12
-28 -9 -9 -8 -16 4 -29 14 -16 14 -26 4 -78 -8 -37 -15 -54 -19 -45 -4 8 -4
-1 -1 -20 6 -32 11 -69 13 -95 1 -6 13 -19 29 -29 17 -11 19 -15 7 -11 -11 4
-29 8 -40 10 -11 1 -32 6 -47 10 -19 5 -28 3 -28 -5 0 -14 -23 7 -33 30 -4 8
-5 -1 -3 -20 2 -19 1 -27 -1 -17 -2 9 -9 17 -14 17 -5 0 -9 8 -10 18 0 11 -2
12 -6 4 -3 -7 -16 -24 -29 -37 -25 -25 -31 -45 -14 -45 6 0 10 -6 10 -13 0
-16 116 -111 147 -121 12 -4 25 -16 28 -27 4 -11 15 -19 29 -19 13 0 39 -7 59
-15 83 -35 224 -35 321 -1 23 8 66 22 96 31 30 9 57 20 60 24 5 7 65 36 130
65 19 8 49 24 65 36 19 13 46 20 77 20 26 0 49 4 52 9 4 5 14 8 24 7 18 -3 50
-80 51 -126 1 -28 63 -279 80 -322 l11 -28 1855 0 1855 0 0 1749 0 1749 -42 6
c-24 3 -119 8 -213 12 -134 5 -183 11 -230 27 -77 27 -236 30 -310 5 -27 -9
-97 -19 -155 -21 -136 -6 -168 -17 -364 -121 -63 -33 -92 -44 -99 -37 -16 16
-37 13 -37 -3 0 -21 -21 -31 -31 -15 -6 10 -9 8 -9 -8 0 -13 -4 -24 -10 -24
-5 -1 -14 -3 -20 -4 -5 -1 -14 -3 -18 -4 -5 0 -22 -12 -38 -26 -20 -18 -30
-21 -36 -12 -6 9 -8 8 -8 -3 0 -14 -43 -39 -73 -44 -7 -1 -26 -14 -43 -29 -16
-15 -34 -25 -41 -23 -7 3 -14 -3 -17 -12 -3 -10 -22 -26 -41 -36 -19 -11 -35
-23 -35 -28 0 -4 -6 -8 -14 -8 -8 0 -38 -20 -66 -44 -54 -46 -156 -104 -166
-94 -9 10 40 82 119 171 15 17 27 34 27 38 0 3 10 17 23 31 12 14 46 53 75 87
30 34 86 84 125 112 39 27 87 65 107 83 55 50 65 51 110 6 22 -22 40 -47 40
-55 0 -9 6 -12 15 -9 9 4 15 0 15 -10 0 -9 7 -16 15 -16 8 0 15 4 15 9 0 11
-45 58 -82 86 -24 19 -57 56 -121 140 -16 20 -31 34 -34 31 -3 -3 0 -12 6 -20
16 -19 6 -36 -20 -36 -10 0 -32 -13 -47 -30 -16 -16 -34 -30 -39 -30 -6 0 -16
-7 -24 -16 -11 -13 -14 -13 -21 0 -7 12 -13 9 -37 -14 -16 -16 -34 -43 -40
-61 -10 -30 -82 -109 -99 -109 -11 0 -35 -51 -27 -58 2 -3 -4 -12 -15 -19 -11
-8 -18 -19 -15 -24 4 -5 1 -9 -4 -9 -6 0 -11 -6 -11 -13 0 -8 -9 -22 -20 -32
-11 -10 -22 -27 -26 -39 -14 -46 -48 -112 -70 -136 -23 -26 -41 -59 -94 -170
-17 -36 -36 -72 -41 -80 -5 -8 -13 -25 -18 -37 -6 -11 -14 -24 -19 -27 -6 -3
-8 -15 -5 -27 3 -12 1 -24 -4 -28 -14 -9 -63 -107 -57 -114 8 -7 -18 -87 -28
-87 -4 0 -8 -6 -8 -13 0 -15 -25 -50 -62 -88 -16 -15 -28 -31 -28 -36 0 -5 -9
-15 -20 -23 -11 -8 -20 -19 -21 -25 0 -13 -48 -50 -76 -59 -22 -7 -31 3 -15
18 4 4 7 11 7 14 1 4 7 18 14 32 8 14 10 22 6 18 -5 -4 -19 7 -32 24 -16 22
-23 27 -23 15 0 -9 -4 -17 -8 -17 -5 0 -15 -22 -22 -50 -7 -27 -17 -50 -21
-50 -13 0 -18 -29 -9 -59 5 -17 6 -31 2 -31 -4 0 -23 -15 -43 -33 -19 -17 -44
-33 -53 -35 -16 -3 -18 2 -13 30 11 68 83 370 101 423 8 22 19 60 26 85 29
104 73 214 90 225 5 3 12 27 16 53 4 26 19 76 34 112 15 36 33 83 40 105 6 22
29 76 49 120 63 133 68 147 91 225 20 68 58 168 81 212 5 10 9 23 9 30 0 6 7
19 16 29 19 21 12 69 -9 69 -17 0 -37 -21 -37 -39 0 -8 -11 -28 -23 -45 -13
-17 -32 -49 -43 -71 -10 -22 -26 -46 -36 -53 -10 -7 -18 -21 -18 -31 0 -10 -9
-30 -20 -44 -11 -14 -20 -29 -20 -33 0 -4 -18 -29 -40 -55 -22 -26 -40 -52
-40 -58 0 -6 -7 -11 -17 -11 -14 0 -14 -2 2 -20 17 -19 17 -21 -14 -52 -32
-33 -39 -48 -21 -48 11 0 9 -32 -4 -62 -6 -14 -13 -15 -33 -7 -31 12 -33 10
-38 -31 -2 -19 3 -42 12 -57 15 -23 15 -27 -2 -56 -10 -17 -21 -44 -24 -61 -5
-24 -13 -32 -33 -34 -32 -4 -36 -16 -36 -107 -1 -103 -8 -154 -27 -174 -8 -10
-20 -42 -24 -71 -5 -30 -15 -58 -23 -64 -18 -14 -31 -43 -33 -79 -2 -15 -9
-36 -18 -45 -20 -23 -26 -48 -28 -112 -1 -30 -5 -59 -9 -65 -4 -5 -11 -28 -15
-50 -4 -22 -12 -49 -18 -60 -12 -22 -13 -25 -22 -70 -13 -64 -24 -75 -70 -65
-5 1 -17 3 -24 4 -8 2 -17 8 -19 15 -3 8 5 10 25 6 19 -5 24 -4 14 3 -11 8 -9
11 8 17 25 8 26 14 6 42 -12 17 -12 23 -2 27 6 3 2 3 -10 0 -21 -5 -23 -2 -23
33 0 21 -4 44 -9 52 -6 9 -4 23 7 39 12 19 13 27 4 30 -15 5 -16 82 -1 82 8 0
10 19 6 60 -3 33 -1 60 4 60 16 0 10 19 -11 37 -24 21 -25 39 -5 60 8 8 12 19
9 24 -9 15 5 81 16 74 5 -3 12 0 16 6 5 8 3 9 -6 4 -9 -6 -11 3 -6 41 6 55 9
103 7 154 -1 28 -4 32 -12 20 -9 -12 -9 -11 -3 5 4 11 6 37 5 58 -1 27 2 37
14 37 8 0 15 6 15 13 0 9 3 8 9 -2 5 -7 7 -23 4 -35 -4 -18 -3 -19 9 -5 7 8
21 18 31 22 10 4 17 16 16 29 0 14 -3 17 -6 9 -4 -10 -12 -4 -24 20 -16 29
-18 30 -16 10 1 -15 -4 -25 -15 -26 -13 -3 -17 8 -20 57 -4 70 2 83 31 73 16
-5 20 -3 15 8 -3 8 -1 18 5 22 6 3 11 15 11 26 0 10 4 19 10 19 5 0 7 7 4 15
-4 9 0 15 10 15 21 0 41 39 27 53 -6 6 -11 18 -10 26 0 10 2 11 5 4 6 -15 34
-5 34 11 0 7 7 21 16 32 15 18 15 18 5 -3 -6 -12 -11 -30 -11 -40 1 -17 2 -16
16 2 8 11 17 19 19 18 15 -8 34 -1 38 15 4 14 5 15 6 1 0 -9 10 -19 21 -22 23
-6 24 -3 10 22 -8 15 -6 17 15 13 20 -3 25 0 25 17 0 11 5 21 10 21 6 0 10 8
10 18 0 9 13 26 29 37 23 15 31 29 36 66 4 27 15 55 26 66 11 10 35 33 54 52
l34 35 -22 18 c-29 26 -67 34 -78 17 -6 -10 -9 -11 -9 -1 0 6 -9 21 -20 32
-12 12 -17 26 -13 36 4 12 3 15 -5 10 -8 -5 -12 0 -12 14 0 13 -4 19 -12 14
-7 -4 -8 -3 -4 4 6 11 -8 50 -23 62 -3 3 -13 18 -21 33 -12 24 -12 30 0 37 18
11 2 69 -25 84 -25 14 -45 39 -39 48 3 4 -2 5 -10 2 -14 -5 -16 5 -16 69 0 56
-4 78 -14 84 -9 5 -16 28 -18 62 -2 30 -8 56 -14 58 -14 5 -40 -58 -49 -120
-4 -26 -11 -47 -15 -47 -4 0 -14 -17 -24 -37 -30 -69 -76 -133 -95 -133 -6 0
-11 -6 -11 -12 0 -7 -14 -26 -30 -42 -17 -16 -30 -33 -30 -37 0 -5 -19 -14
-42 -21 -24 -6 -56 -24 -72 -38 -53 -47 -96 -92 -96 -101 0 -15 -34 -9 -56 9
-16 13 -22 30 -22 62 -1 49 -11 60 -77 90 -48 21 -61 36 -63 73 -2 32 1 33 39
10 28 -17 31 -17 63 1 20 10 40 32 47 50 7 17 15 33 19 36 3 3 19 32 37 65 36
69 111 130 151 120 15 -4 22 -1 22 10 0 25 2 30 21 43 10 7 21 28 25 47 3 19
10 35 14 35 5 0 6 15 3 34 -3 18 0 56 5 83 9 40 8 62 -7 119 -23 90 -43 144
-53 144 -4 0 -8 6 -8 14 0 8 -12 19 -27 25 -16 6 -53 25 -83 41 -62 33 -78 36
-86 16 -3 -8 -12 -17 -20 -20 -8 -3 -13 -2 -10 2 3 5 -15 41 -39 82 -28 48
-40 77 -33 81 6 4 7 12 3 18 -4 7 -1 18 5 26 9 11 9 15 1 15 -6 0 -11 7 -11
15 0 8 7 15 16 15 9 0 12 -5 8 -12 -5 -9 -2 -8 9 1 14 11 23 11 40 3 12 -6 38
-17 58 -25 19 -8 47 -25 61 -38 36 -33 74 -66 140 -122 32 -26 65 -62 74 -80
9 -17 20 -34 23 -37 15 -12 43 -73 46 -100 3 -24 0 -30 -15 -30 -13 0 -20 -7
-20 -20 0 -11 5 -20 12 -20 6 0 3 -6 -7 -14 -15 -10 -20 -33 -26 -117 -8 -107
-15 -139 -30 -139 -5 0 -9 -8 -9 -18 0 -10 -5 -23 -11 -29 -8 -8 -8 -17 0 -32
13 -24 58 -29 83 -8 25 19 65 90 79 138 7 24 14 51 17 59 11 36 2 209 -12 251
-9 24 -16 59 -16 78 0 21 -10 47 -25 67 -14 18 -25 36 -25 41 0 16 -42 88 -56
96 -8 4 -14 15 -14 22 0 8 -4 15 -10 15 -5 0 -7 6 -4 13 2 7 -4 22 -16 32 -11
10 -20 22 -20 27 0 4 -8 16 -17 26 -42 44 -73 83 -73 92 0 5 -3 9 -7 8 -5 -1
-38 13 -75 30 -79 37 -153 51 -220 41z m70 -482 c8 -9 3 -21 -17 -46 l-28 -35
-12 23 c-22 40 29 92 57 58z m-2703 -597 c3 -5 1 -10 -4 -10 -6 0 -11 5 -11
10 0 6 2 10 4 10 3 0 8 -4 11 -10z m405 -150 c0 -11 -4 -20 -8 -20 -4 0 -8 9
-9 20 -1 11 2 20 8 20 5 0 9 -9 9 -20z m1705 -348 c-3 -3 -11 0 -18 7 -9 10
-8 11 6 5 10 -3 15 -9 12 -12z m-75 -26 c0 -3 -4 -8 -10 -11 -5 -3 -10 -1 -10
4 0 6 5 11 10 11 6 0 10 -2 10 -4z m-2459 -29 c-6 -8 -7 -18 -3 -22 4 -5 1 -5
-5 -1 -19 10 -16 36 3 36 13 0 14 -3 5 -13z m2199 -21 c0 -9 -30 -14 -35 -6
-4 6 3 10 14 10 12 0 21 -2 21 -4z m1687 -33 c-3 -10 -5 -4 -5 12 0 17 2 24 5
18 2 -7 2 -21 0 -30z m-1668 -85 c1 -40 -21 -54 -33 -22 -10 25 -7 46 5 38 8
-4 9 0 4 15 -3 11 -3 26 1 33 10 16 22 -17 23 -64z m1667 40 c5 -7 3 -8 -6 -3
-9 6 -11 0 -5 -23 3 -17 2 -39 -4 -49 -6 -10 -11 -13 -11 -8 -1 6 -5 1 -10
-10 -8 -19 -9 -19 -9 4 -1 16 -5 21 -16 17 -9 -3 -15 0 -15 9 0 8 5 15 10 15
6 0 10 9 10 20 0 29 42 51 56 28z m-1586 -37 c0 -22 -4 -43 -10 -46 -6 -4 -10
12 -10 39 0 25 5 46 10 46 6 0 10 -18 10 -39z m-260 -61 c0 -5 -4 -10 -10 -10
-5 0 -10 5 -10 10 0 6 5 10 10 10 6 0 10 -4 10 -10z m385 -56 c0 -10 -8 -20
-18 -22 -22 -4 -35 27 -16 39 20 12 34 5 34 -17z m-195 -13 c0 -6 -4 -13 -10
-16 -5 -3 -10 1 -10 9 0 9 5 16 10 16 6 0 10 -4 10 -9z m1463 -86 c-3 -9 -8
-14 -10 -11 -3 3 -2 9 2 15 9 16 15 13 8 -4z m-1650 -70 c-3 -9 -8 -14 -10
-11 -3 3 -2 9 2 15 9 16 15 13 8 -4z m207 -45 c0 -5 -2 -10 -4 -10 -3 0 -8 5
-11 10 -3 6 -1 10 4 10 6 0 11 -4 11 -10z m-1647 -15 c-3 -9 -8 -14 -10 -11
-3 3 -2 9 2 15 9 16 15 13 8 -4z m1617 -30 c0 -14 -4 -25 -10 -25 -5 0 -10 11
-10 25 0 14 5 25 10 25 6 0 10 -11 10 -25z m27 -7 c-3 -8 -6 -5 -6 6 -1 11 2
17 5 13 3 -3 4 -12 1 -19z m158 -17 c-6 -5 -25 10 -25 20 0 5 6 4 14 -3 8 -7
12 -15 11 -17z m797 -6 c4 -31 1 -35 -19 -35 -13 0 -23 -6 -23 -14 0 -8 -4
-18 -10 -21 -6 -4 -10 6 -10 23 0 21 6 31 20 35 12 3 20 14 20 26 0 35 18 24
22 -14z m-857 -16 c4 -6 14 -8 24 -5 14 5 13 4 -1 -8 -10 -7 -18 -21 -18 -30
0 -9 -8 -16 -20 -16 -13 0 -20 7 -20 19 0 42 20 65 35 40z m-295 -29 c0 -5 -2
-10 -4 -10 -3 0 -8 5 -11 10 -3 6 -1 10 4 10 6 0 11 -4 11 -10z m1150 -16 c0
-8 -5 -12 -10 -9 -6 4 -8 11 -5 16 9 14 15 11 15 -7z m-160 -39 c0 -8 -4 -15
-10 -15 -5 0 -10 7 -10 15 0 8 5 15 10 15 6 0 10 -7 10 -15z m229 6 c7 -1 11
-7 7 -16 -3 -10 1 -15 13 -15 32 0 51 -11 51 -30 0 -12 10 -21 31 -25 18 -4
27 -10 20 -14 -7 -5 -5 -14 9 -29 22 -23 26 -47 10 -57 -6 -4 -8 -9 -6 -13 2
-4 -2 -47 -9 -96 -7 -49 -11 -95 -8 -102 8 -21 -16 -54 -40 -54 -12 0 -35 14
-50 30 -33 34 -45 37 -54 13 -20 -52 -57 -51 -67 2 -4 19 -12 37 -17 41 -8 4
-9 -2 -5 -17 7 -24 7 -24 -9 -4 -9 11 -21 29 -27 40 -10 17 -9 18 3 8 10 -8
20 -9 29 -3 11 7 11 10 2 10 -7 0 -17 10 -22 23 -13 30 -33 61 -44 69 -6 4 -5
17 2 32 11 24 9 30 -18 58 -34 35 -33 33 -19 59 7 15 7 24 -2 35 -7 9 -8 14
-1 14 6 0 12 -5 14 -11 2 -6 24 -13 48 -16 36 -4 49 -1 68 17 12 11 22 29 22
40 0 15 6 18 28 15 15 -2 33 -4 41 -4z m-1731 -88 c-4 -20 -18 -26 -37 -14
-18 12 -5 31 20 31 14 0 19 -6 17 -17z m707 7 c3 -5 1 -10 -4 -10 -6 0 -11 5
-11 10 0 6 2 10 4 10 3 0 8 -4 11 -10z m-2255 -31 c0 -5 -7 -9 -15 -9 -9 0
-15 9 -15 21 0 18 2 19 15 9 8 -7 15 -16 15 -21z m1990 21 c0 -5 -9 -10 -21
-10 -11 0 -17 5 -14 10 3 6 13 10 21 10 8 0 14 -4 14 -10z m1000 -14 c0 -3 -4
-8 -10 -11 -5 -3 -10 -1 -10 4 0 6 5 11 10 11 6 0 10 -2 10 -4z m-2867 -31
c-3 -9 -8 -14 -10 -11 -3 3 -2 9 2 15 9 16 15 13 8 -4z m1847 0 c0 -8 6 -15
14 -15 8 0 16 -7 20 -15 4 -10 -1 -15 -14 -15 -11 0 -20 7 -20 15 0 11 -11 15
-40 15 -29 0 -40 4 -40 15 0 11 11 15 40 15 29 0 40 -4 40 -15z m104 -20 c-4
-8 -10 -15 -15 -15 -5 0 -9 7 -9 15 0 8 7 15 15 15 9 0 12 -6 9 -15z m-447
-92 c-3 -10 -5 -4 -5 12 0 17 2 24 5 18 2 -7 2 -21 0 -30z m100 -35 c-3 -8 -6
-5 -6 6 -1 11 2 17 5 13 3 -3 4 -12 1 -19z m-1577 -27 c0 -6 -4 -13 -10 -16
-5 -3 -10 1 -10 9 0 9 5 16 10 16 6 0 10 -4 10 -9z m7 -68 c-3 -10 -5 -4 -5
12 0 17 2 24 5 18 2 -7 2 -21 0 -30z m3383 27 c0 -5 -5 -10 -11 -10 -5 0 -7 5
-4 10 3 6 8 10 11 10 2 0 4 -4 4 -10z m-3280 -95 c0 -8 -4 -15 -10 -15 -5 0
-10 7 -10 15 0 8 5 15 10 15 6 0 10 -7 10 -15z m-88 -17 c-7 -7 -12 -8 -12 -2
0 14 12 26 19 19 2 -3 -1 -11 -7 -17z m2948 -23 c0 -8 -7 -15 -15 -15 -8 0
-15 7 -15 15 0 8 7 15 15 15 8 0 15 -7 15 -15z m-2750 -25 c0 -5 -4 -10 -10
-10 -5 0 -10 5 -10 10 0 6 5 10 10 10 6 0 10 -4 10 -10z m2908 -11 c8 -13 19
-18 29 -14 16 5 33 -10 33 -30 0 -5 -15 -11 -32 -12 -18 -2 -34 -7 -36 -13 -5
-14 -21 -12 -38 5 -11 10 -13 25 -8 50 7 40 32 47 52 14z m-81 -26 c3 -7 -6
-17 -18 -23 -12 -7 -19 -8 -15 -2 3 6 0 13 -6 15 -10 4 -9 8 2 16 17 12 32 10
37 -6z m-1690 -25 c-3 -7 -5 -2 -5 12 0 14 2 19 5 13 2 -7 2 -19 0 -25z m1737
-44 c4 -9 4 -19 1 -22 -6 -6 -35 18 -35 29 0 16 28 10 34 -7z m-1824 -164 c0
-5 -4 -10 -10 -10 -5 0 -10 5 -10 10 0 6 5 10 10 10 6 0 10 -4 10 -10z m2528
-105 c-9 -9 -30 14 -23 25 6 9 10 8 17 -4 6 -10 8 -19 6 -21z m-2681 -7 c-3
-8 -6 -5 -6 6 -1 11 2 17 5 13 3 -3 4 -12 1 -19z m30 0 c-3 -8 -6 -5 -6 6 -1
11 2 17 5 13 3 -3 4 -12 1 -19z m-43 -23 c3 -8 12 -15 21 -15 8 0 15 -4 15
-10 0 -11 -15 -12 -46 -4 -15 4 -20 11 -17 25 6 23 19 25 27 4z m-624 -211
c-18 -21 -24 -10 -9 18 8 14 14 18 17 10 2 -7 -2 -19 -8 -28z m569 5 c13 -11
21 -22 18 -25 -7 -7 -45 17 -51 33 -7 18 5 15 33 -8z m2356 11 c3 -5 -3 -10
-14 -10 -12 0 -21 5 -21 10 0 6 6 10 14 10 8 0 18 -4 21 -10z m-2996 -53 c0
-21 -1 -21 -9 -2 -12 28 -12 37 0 30 6 -3 10 -16 9 -28z m221 -46 c0 -12 -20
-25 -27 -18 -7 7 6 27 18 27 5 0 9 -4 9 -9z m1300 -932 c0 -6 -4 -7 -10 -4 -5
3 -10 11 -10 16 0 6 5 7 10 4 6 -3 10 -11 10 -16z m-38 -71 c-7 -7 -12 -8 -12
-2 0 14 12 26 19 19 2 -3 -1 -11 -7 -17z m-22 -8 c0 -5 -4 -10 -10 -10 -5 0
-10 5 -10 10 0 6 5 10 10 10 6 0 10 -4 10 -10z m-500 -54 c0 -2 3 -11 6 -19 4
-11 0 -15 -13 -13 -23 4 -31 36 -9 36 9 0 16 -2 16 -4z m40 -34 c0 -15 -2 -15
-10 -2 -13 20 -13 33 0 25 6 -3 10 -14 10 -23z m30 -2 c0 -5 -4 -10 -10 -10
-5 0 -10 5 -10 10 0 6 5 10 10 10 6 0 10 -4 10 -10z m317 -142 c-3 -8 -6 -5
-6 6 -1 11 2 17 5 13 3 -3 4 -12 1 -19z m-180 -60 c-3 -8 -6 -5 -6 6 -1 11 2
17 5 13 3 -3 4 -12 1 -19z"/>
<path d="M4340 2693 c0 -33 2 -36 15 -23 8 9 12 24 9 38 -10 35 -24 26 -24
-15z"/>
<path d="M3012 5246 c14 -14 28 -31 31 -38 2 -7 7 -10 11 -6 8 6 -12 48 -29
60 -5 4 -17 8 -25 8 -10 0 -6 -8 12 -24z"/>
<path d="M3110 5253 c0 -15 -2 -16 -10 -3 -5 8 -10 11 -10 7 0 -5 13 -22 29
-38 24 -24 30 -26 35 -12 4 9 4 18 1 21 -3 3 -5 -1 -5 -8 0 -12 -2 -12 -12 -1
-10 10 -10 15 -1 18 16 6 5 33 -13 33 -8 0 -14 -8 -14 -17z"/>
<path d="M3664 5081 c3 -5 15 -7 26 -4 28 7 25 13 -6 13 -14 0 -23 -4 -20 -9z"/>
<path d="M3127 5073 c-4 -3 -7 -11 -7 -17 0 -6 5 -5 12 2 6 6 9 14 7 17 -3 3
-9 2 -12 -2z"/>
<path d="M3451 5064 c0 -11 3 -14 6 -6 3 7 2 16 -1 19 -3 4 -6 -2 -5 -13z"/>
<path d="M3315 5060 c3 -5 11 -10 16 -10 6 0 7 5 4 10 -3 6 -11 10 -16 10 -6
0 -7 -4 -4 -10z"/>
<path d="M3102 5020 c0 -14 2 -19 5 -12 2 6 2 18 0 25 -3 6 -5 1 -5 -13z"/>
<path d="M3551 5021 c-6 -4 -9 -14 -6 -23 3 -8 1 -27 -5 -43 -11 -30 -4 -48
10 -25 5 8 12 11 17 6 4 -4 0 -12 -10 -17 -19 -11 -24 -53 -4 -47 24 8 38 53
26 87 -8 23 -8 35 0 45 14 16 -8 29 -28 17z"/>
<path d="M3510 4994 c0 -8 5 -12 10 -9 6 4 8 11 5 16 -9 14 -15 11 -15 -7z"/>
<path d="M3235 4950 c-11 -5 -14 -9 -8 -9 9 -1 11 -12 9 -35 -4 -27 1 -39 24
-61 16 -15 33 -24 39 -21 7 4 8 1 5 -8 -8 -21 10 -20 27 0 22 27 10 66 -32
107 -21 20 -40 37 -41 36 -2 0 -12 -4 -23 -9z"/>
<path d="M3130 4860 c0 -5 5 -10 10 -10 6 0 10 5 10 10 0 6 -4 10 -10 10 -5 0
-10 -4 -10 -10z"/>
<path d="M2156 4608 c-9 -35 -8 -38 18 -38 30 0 40 13 31 40 -9 27 -41 25 -49
-2z"/>
<path d="M4800 4546 c0 -14 5 -26 10 -26 6 0 10 9 10 19 0 11 -4 23 -10 26 -6
4 -10 -5 -10 -19z"/>
<path d="M1930 4545 c-12 -15 -11 -16 16 -13 16 1 28 8 27 13 -3 17 -29 17
-43 0z"/>
<path d="M5127 4495 c4 -11 7 -36 5 -55 -3 -54 5 -77 37 -99 27 -20 30 -20 46
-4 24 23 12 72 -25 104 -19 17 -30 36 -30 52 0 20 -5 25 -20 24 -16 -1 -18 -6
-13 -22z"/>
<path d="M4790 4493 c0 -10 -6 -28 -14 -39 -14 -19 -13 -20 7 -18 12 1 26 3
30 3 13 1 3 64 -10 69 -7 2 -13 -5 -13 -15z"/>
<path d="M2190 4490 c0 -5 4 -10 9 -10 6 0 13 5 16 10 3 6 -1 10 -9 10 -9 0
-16 -4 -16 -10z"/>
<path d="M3566 4388 c-21 -30 -20 -39 10 -71 31 -33 50 -24 60 29 11 59 -38
88 -70 42z"/>
<path d="M1875 4381 c-8 -13 33 -34 51 -27 9 3 12 10 9 16 -4 6 -10 8 -15 5
-5 -3 -11 -1 -15 5 -8 13 -22 13 -30 1z"/>
<path d="M0 4352 c0 -5 7 -9 15 -9 8 0 15 4 15 9 0 4 -7 8 -15 8 -8 0 -15 -4
-15 -8z"/>
<path d="M3860 4130 c0 -5 5 -10 11 -10 5 0 7 5 4 10 -3 6 -8 10 -11 10 -2 0
-4 -4 -4 -10z"/>
<path d="M4841 4074 c0 -11 3 -14 6 -6 3 7 2 16 -1 19 -3 4 -6 -2 -5 -13z"/>
<path d="M3200 3960 c0 -5 5 -10 11 -10 5 0 7 5 4 10 -3 6 -8 10 -11 10 -2 0
-4 -4 -4 -10z"/>
<path d="M3587 3944 c3 -7 11 -10 19 -7 20 8 17 22 -5 20 -10 0 -17 -7 -14
-13z"/>
<path d="M3193 3908 c-4 -7 -13 -22 -18 -33 -6 -11 -21 -21 -33 -23 -15 -2
-22 -10 -22 -27 0 -19 4 -22 23 -18 17 4 19 2 7 -6 -12 -8 -12 -11 3 -17 9 -3
24 -1 32 6 9 7 28 10 47 6 48 -8 68 8 32 26 -20 9 -29 21 -30 38 -2 50 -23 75
-41 48z"/>
<path d="M2953 3866 c3 -8 -1 -13 -10 -12 -23 2 -27 -21 -5 -26 12 -3 23 2 30
13 16 26 15 39 -4 39 -10 0 -14 -6 -11 -14z"/>
<path d="M5427 3873 c-4 -3 -7 -17 -7 -30 0 -16 6 -23 19 -23 19 0 31 18 31
46 0 14 -31 20 -43 7z"/>
<path d="M5748 3817 c-27 -26 -68 -47 -68 -36 0 8 -4 8 -15 -1 -8 -7 -15 -21
-15 -32 0 -25 -36 -95 -54 -105 -8 -5 -30 -42 -49 -83 -23 -51 -43 -80 -62
-90 -35 -19 -55 -59 -55 -113 0 -34 -7 -53 -30 -82 -16 -21 -30 -49 -30 -62 0
-26 -33 -98 -50 -108 -5 -3 -10 -20 -10 -36 0 -18 -4 -28 -10 -24 -5 3 -10 -1
-10 -10 0 -9 -9 -35 -20 -57 -11 -23 -20 -50 -20 -59 0 -10 -4 -20 -9 -23 -5
-3 -7 -15 -4 -27 4 -15 0 -22 -16 -26 -22 -6 -24 -10 -23 -55 0 -16 -4 -28 -9
-28 -5 0 -9 -7 -9 -14 0 -8 -14 -35 -31 -60 -25 -37 -28 -49 -19 -66 6 -11 16
-20 23 -20 25 0 71 99 60 128 -4 10 -2 13 5 8 7 -4 13 -2 13 3 3 26 4 30 12
37 4 4 7 17 7 28 0 12 13 33 28 46 27 24 82 128 82 155 0 8 3 15 8 17 6 2 41
68 47 88 6 19 41 95 67 145 47 89 52 100 60 105 3 3 16 30 28 60 12 30 35 80
52 110 17 30 42 75 56 100 13 25 27 50 31 55 4 6 14 30 21 55 8 25 20 55 28
68 16 24 11 29 -10 9z m-518 -1027 c0 -5 -4 -10 -10 -10 -5 0 -10 5 -10 10 0
6 5 10 10 10 6 0 10 -4 10 -10z"/>
<path d="M3170 3756 c0 -17 24 -27 45 -20 12 5 13 10 4 20 -15 18 -49 18 -49
0z"/>
<path d="M5010 3720 c0 -5 5 -10 10 -10 6 0 10 5 10 10 0 6 -4 10 -10 10 -5 0
-10 -4 -10 -10z"/>
<path d="M5 3690 c3 -5 10 -10 16 -10 5 0 9 5 9 10 0 6 -7 10 -16 10 -8 0 -12
-4 -9 -10z"/>
<path d="M2790 3628 c0 -7 4 -19 9 -27 8 -12 12 -12 25 -2 8 7 12 19 9 27 -6
17 -43 19 -43 2z"/>
<path d="M3146 3575 c-3 -8 -1 -15 4 -15 6 0 10 7 10 15 0 8 -2 15 -4 15 -2 0
-6 -7 -10 -15z"/>
<path d="M2961 3514 c0 -11 3 -14 6 -6 3 7 2 16 -1 19 -3 4 -6 -2 -5 -13z"/>
<path d="M3216 3521 c-4 -7 -5 -15 -2 -18 9 -9 19 4 14 18 -4 11 -6 11 -12 0z"/>
<path d="M2621 3448 c0 -13 3 -17 6 -10 4 10 9 9 24 -4 11 -9 22 -14 25 -11 7
7 -35 46 -48 47 -5 0 -8 -10 -7 -22z"/>
<path d="M2590 3431 c0 -11 4 -22 9 -25 4 -3 6 6 3 19 -5 30 -12 33 -12 6z"/>
<path d="M2890 3440 c0 -5 9 -10 21 -10 11 0 17 5 14 10 -3 6 -13 10 -21 10
-8 0 -14 -4 -14 -10z"/>
<path d="M2691 3416 c-20 -24 -10 -70 17 -74 12 -2 22 -8 22 -13 0 -5 4 -9 9
-9 5 0 4 14 -2 30 -10 25 -9 33 2 40 12 7 12 11 2 24 -17 20 -35 20 -50 2z"/>
<path d="M2920 3400 c-12 -8 -10 -10 8 -10 13 0 20 4 17 10 -7 12 -6 12 -25 0z"/>
<path d="M6105 3380 c-8 -12 20 -24 35 -15 6 3 8 11 5 16 -8 12 -32 12 -40 -1z"/>
<path d="M2956 3344 c1 -6 -2 -16 -8 -22 -8 -8 -6 -16 6 -27 9 -9 13 -21 10
-27 -4 -6 -9 -5 -15 3 -12 20 -21 5 -21 -35 0 -37 0 -37 -57 -40 -35 -2 -50
-30 -28 -54 22 -24 22 -25 -13 -64 -16 -18 -30 -38 -30 -45 0 -7 -4 -13 -10
-13 -14 0 -11 -40 6 -75 8 -16 12 -22 9 -12 -17 61 -17 67 -1 67 9 0 19 -7 22
-15 4 -8 17 -15 31 -15 20 0 24 4 20 19 -3 12 0 18 7 15 12 -5 42 61 38 83 -2
7 9 15 23 19 14 3 25 12 25 20 0 17 26 18 34 2 3 -7 3 -1 0 15 -4 16 -2 27 5
27 6 0 11 -4 11 -10 0 -22 15 -8 16 15 2 21 -1 23 -16 15 -13 -7 -20 -6 -24 3
-5 9 -7 9 -12 -1 -6 -13 -24 -7 -24 9 0 6 5 7 10 4 6 -3 10 -1 10 5 0 6 5 8
13 3 18 -11 37 -12 37 -2 0 24 20 -5 21 -29 1 -26 1 -25 10 6 7 24 6 38 -4 53
-13 17 -15 18 -21 4 -12 -31 -24 -5 -15 32 9 41 -6 63 -42 63 -10 0 -19 3 -22
8 -2 4 -3 2 -1 -4z"/>
<path d="M5920 3290 c0 -5 6 -10 14 -10 8 0 18 5 21 10 3 6 -3 10 -14 10 -12
0 -21 -4 -21 -10z"/>
<path d="M2890 3265 c0 -14 5 -25 10 -25 6 0 10 11 10 25 0 14 -4 25 -10 25
-5 0 -10 -11 -10 -25z"/>
<path d="M278 3172 c-29 -18 -36 -48 -18 -82 7 -13 7 -21 0 -25 -12 -8 -13
-55 -1 -55 5 0 12 -12 15 -27 14 -54 73 -130 111 -143 20 -7 38 -10 41 -8 2 3
-3 21 -11 42 -14 32 -14 37 -1 42 9 3 18 25 22 50 4 29 17 55 35 75 35 38 38
74 7 90 -13 6 -33 21 -45 32 -30 27 -117 32 -155 9z"/>
<path d="M4868 3142 c-3 -11 0 -19 8 -19 8 0 14 9 14 19 0 10 -4 18 -9 18 -5
0 -11 -8 -13 -18z"/>
<path d="M2407 3137 c-11 -29 -9 -53 4 -40 6 6 9 21 7 34 -3 21 -4 22 -11 6z"/>
<path d="M1641 3054 c-14 -13 -22 -27 -18 -30 4 -4 7 -2 7 5 0 7 4 10 9 6 6
-3 15 4 21 16 16 29 9 30 -19 3z"/>
<path d="M2750 3036 c0 -9 7 -16 16 -16 17 0 14 22 -4 28 -7 2 -12 -3 -12 -12z"/>
<path d="M2510 3020 c0 -5 5 -10 10 -10 6 0 10 5 10 10 0 6 -4 10 -10 10 -5 0
-10 -4 -10 -10z"/>
<path d="M1540 2990 c0 -5 5 -10 10 -10 6 0 10 5 10 10 0 6 -4 10 -10 10 -5 0
-10 -4 -10 -10z"/>
<path d="M2342 2980 c0 -14 2 -19 5 -12 2 6 2 18 0 25 -3 6 -5 1 -5 -13z"/>
<path d="M2750 2990 c0 -5 5 -10 10 -10 6 0 10 5 10 10 0 6 -4 10 -10 10 -5 0
-10 -4 -10 -10z"/>
<path d="M490 2961 c-7 -15 -6 -23 6 -35 21 -22 22 -21 22 19 0 39 -12 45 -28
16z"/>
<path d="M2730 2968 c0 -9 5 -20 10 -23 13 -8 13 5 0 25 -8 13 -10 13 -10 -2z"/>
<path d="M2384 2909 c-3 -6 -1 -16 5 -22 8 -8 11 -5 11 11 0 24 -5 28 -16 11z"/>
<path d="M2411 2873 c-1 -7 -14 -13 -30 -13 -42 0 -61 -9 -61 -30 0 -16 16
-26 72 -43 28 -9 41 17 30 60 -5 21 -10 32 -11 26z"/>
<path d="M2436 2861 c-4 -7 -5 -15 -2 -18 9 -9 19 4 14 18 -4 11 -6 11 -12 0z"/>
<path d="M1104 2814 c-13 -6 -7 -44 7 -44 5 0 9 11 9 25 0 14 -1 25 -2 24 -2
0 -8 -3 -14 -5z"/>
<path d="M2350 2749 c0 -5 5 -7 10 -4 6 3 10 8 10 11 0 2 -4 4 -10 4 -5 0 -10
-5 -10 -11z"/>
<path d="M2315 2723 c3 -8 5 -17 5 -19 0 -3 5 -2 10 1 16 10 12 32 -5 32 -10
0 -14 -6 -10 -14z"/>
<path d="M1015 2720 c3 -5 8 -10 11 -10 2 0 4 5 4 10 0 6 -5 10 -11 10 -5 0
-7 -4 -4 -10z"/>
<path d="M2282 2700 c0 -14 2 -19 5 -12 2 6 2 18 0 25 -3 6 -5 1 -5 -13z"/>
<path d="M2570 2700 c0 -6 7 -10 15 -10 8 0 15 2 15 4 0 2 -7 6 -15 10 -8 3
-15 1 -15 -4z"/>
<path d="M2528 2683 c6 -2 18 -2 25 0 6 3 1 5 -13 5 -14 0 -19 -2 -12 -5z"/>
<path d="M5137 2533 c-4 -3 -7 -11 -7 -17 0 -6 5 -5 12 2 6 6 9 14 7 17 -3 3
-9 2 -12 -2z"/>
<path d="M2321 2454 c0 -11 3 -14 6 -6 3 7 2 16 -1 19 -3 4 -6 -2 -5 -13z"/>
<path d="M2432 2459 c2 -6 8 -10 13 -10 5 0 11 4 13 10 2 6 -4 11 -13 11 -9 0
-15 -5 -13 -11z"/>
<path d="M5111 2424 c0 -11 3 -14 6 -6 3 7 2 16 -1 19 -3 4 -6 -2 -5 -13z"/>
<path d="M2324 2395 c2 -35 5 -40 26 -42 21 -2 22 -1 6 5 -15 7 -17 10 -6 17
11 7 10 10 -2 19 -8 6 -17 18 -20 26 -3 8 -5 -3 -4 -25z"/>
<path d="M1864 2395 c-9 -23 0 -38 24 -40 26 -2 25 -4 12 29 -11 29 -28 34
-36 11z"/>
<path d="M4975 2270 c3 -5 8 -10 11 -10 2 0 4 5 4 10 0 6 -5 10 -11 10 -5 0
-7 -4 -4 -10z"/>
<path d="M2200 2200 c-8 -5 -11 -12 -8 -16 4 -3 14 1 23 10 18 17 9 21 -15 6z"/>
<path d="M2152 2175 c0 -16 2 -22 5 -12 2 9 2 23 0 30 -3 6 -5 -1 -5 -18z"/>
<path d="M1671 2044 c0 -11 3 -14 6 -6 3 7 2 16 -1 19 -3 4 -6 -2 -5 -13z"/>
<path d="M1920 2050 c0 -5 7 -10 16 -10 8 0 12 5 9 10 -3 6 -10 10 -16 10 -5
0 -9 -4 -9 -10z"/>
<path d="M4651 2024 c0 -11 3 -14 6 -6 3 7 2 16 -1 19 -3 4 -6 -2 -5 -13z"/>
<path d="M4666 1995 c-3 -8 -1 -15 4 -15 6 0 10 7 10 15 0 8 -2 15 -4 15 -2 0
-6 -7 -10 -15z"/>
<path d="M1686 1975 c4 -8 15 -15 26 -15 17 0 18 3 8 15 -7 8 -19 15 -26 15
-8 0 -11 -6 -8 -15z"/>
<path d="M4655 1950 c3 -5 8 -10 11 -10 2 0 4 5 4 10 0 6 -5 10 -11 10 -5 0
-7 -4 -4 -10z"/>
<path d="M1900 1910 c0 -5 5 -10 10 -10 6 0 10 5 10 10 0 6 -4 10 -10 10 -5 0
-10 -4 -10 -10z"/>
<path d="M2885 680 c3 -5 8 -10 11 -10 2 0 4 5 4 10 0 6 -5 10 -11 10 -5 0 -7
-4 -4 -10z"/>
<path d="M2816 661 c-4 -5 -2 -12 3 -15 5 -4 12 -2 15 3 4 5 2 12 -3 15 -5 4
-12 2 -15 -3z"/>
<path d="M2900 650 c0 -6 7 -10 15 -10 8 0 15 2 15 4 0 2 -7 6 -15 10 -8 3
-15 1 -15 -4z"/>
<path d="M473 385 c-44 -19 -46 -60 -6 -76 45 -17 91 -3 109 33 15 30 15 32
-2 45 -23 17 -60 16 -101 -2z"/>
<path d="M3704 296 c-3 -8 -4 -25 -2 -38 6 -44 108 -33 108 12 0 11 -9 24 -19
30 -29 15 -81 12 -87 -4z"/>
<path d="M3568 149 c-13 -7 -18 -23 -18 -59 0 -28 5 -50 10 -50 6 0 10 -9 10
-20 0 -18 7 -20 55 -20 l54 0 -25 68 c-22 59 -45 93 -63 92 -3 0 -14 -5 -23
-11z"/>
</g>
</svg>
